<?xml version="1.0" encoding="UTF-8"?>
<svg width="198.84mm" height="225.34mm" version="1.1" viewBox="0 0 198.84 225.34" xmlns="http://www.w3.org/2000/svg" xmlns:cc="http://creativecommons.org/ns#" xmlns:dc="http://purl.org/dc/elements/1.1/" xmlns:rdf="http://www.w3.org/1999/02/22-rdf-syntax-ns#">
 <defs>
  <filter id="filter1112" x="-8.7853e-6" y="-1.4014e-5" width="1" height="1" color-interpolation-filters="sRGB">
   <feGaussianBlur stdDeviation="0.00074798715"/>
  </filter>
  <filter id="filter1493" x="-.0050445" y="-.0093904" width="1.0101" height="1.0188" color-interpolation-filters="sRGB">
   <feGaussianBlur stdDeviation="0.4168609"/>
  </filter>
  <filter id="filter1112-9" x="-8.7853e-6" y="-1.4014e-5" width="1" height="1" color-interpolation-filters="sRGB">
   <feGaussianBlur stdDeviation="0.00074798715"/>
  </filter>
 </defs>
 <metadata>
  <rdf:RDF>
   <cc:Work rdf:about="">
    <dc:format>image/svg+xml</dc:format>
    <dc:type rdf:resource="http://purl.org/dc/dcmitype/StillImage"/>
    <dc:title/>
   </cc:Work>
  </rdf:RDF>
 </metadata>
 <g transform="translate(-5.0764 93.618)" filter="url(#filter1493)" opacity=".60772">
  <path transform="matrix(.25155 0 0 .24282 10.132 30.623)" d="m17.544 0s10.504 24.993-2.4766 87.375c-12.247 58.853-24.069 147.55-5.1621 164.33 21.744 19.305 51.873 19.323 61.551-9.709 9.6774-29.032-16.537-117.72-16.537-117.72s-21.678-82.257 18.645-88.709c40.323-6.4516 39.914 67.174 30.236 107.5-9.6774 40.323-12.641 75.132 1.875 81.584 14.516 6.4516 42.082-21.338 35.631-53.596-6.4516-32.258-6.4514-77.421 17.742-72.582 24.194 4.8387 30.883 92.833 22.818 139.61-8.0645 46.774-27.141 88.099 2.5098 101.88 24.64 11.453 43.798-11.279 36.201-41.547-6.1924-24.673-18.22-65.831-16.607-127.12 1.6129-61.29 22.308-81.883 50.209-80.645 24.296 1.0784 35.513 53.613 30.674 87.484-4.8387 33.871-24.901 67.814 1.1367 74.701 26.258 6.9454 13.109-36.074 14.516-79.719 1.4038-43.548-1.2836-77.28 23.984-79.033 20.334-1.4108 21.46 13.353 22.133 38.322 0.7316 27.169-18.909 62.733-2.3301 72.969 18.328 11.315 32.02-12.485 23.955-33.453s-5.2868-74.433-3.6738-88.949c1.6129-14.516 11.976-54.091 42.621-44.414 30.645 9.6774 21.477 109.92 12.695 153.23-8.9971 44.373-35.753 100.93-16.398 123.51 19.355 22.581 46.805 16.19 56.482-8.0039 9.6774-24.194-2.3011-53.346-11.979-130.77-9.6774-77.419 23.98-90.102 37.068-94.414 20.311-6.6906 28.545 16.865 47.908 15.92 22.262-1.0862 18.257-65.74 46.805-52.568 23.059 10.639 27.954 46.901 22.133 156.72-7.1386 134.68-52.242 167.01-15.293 192.8 36.949 25.795 58.683-17.341 42.203-68.131-12.395-38.202-6.6388-146.95-1.582-178.85 7.1684-45.221 15.233-93.07 49.104-75.328 33.871 17.742-24.97 114.37 15.621 118.19 41.128 3.8738 16.845-40.412 18.697-76.941 1.5107-29.8 16.538-38.673 32.555-71.559 8.5849-17.627 6.0176-41.699 6.0176-41.699l2.0781-438.67s1.7603-26.49-6.3773-34.719c-9.0812-9.1832-37.562-6.436-37.562-6.436l-658.51 2.8167s-21.663-1.2134-28.427 5.9404c-5.7056 6.0342-4.3397 24.938-4.3397 24.938zm500.91 23.777c3.2393-0.13996 6.4411 0.60836 9.4201 1.8942 2.979 1.2859 5.7354 3.1093 8.0838 5.1195 3.6184 3.0973 6.6679 7.7256 8.0154 12.769 1.3474 5.043 0.99282 10.501-2.197 15.257-5.9732 8.9061-20.619 12.908-29.422 3.7461-6.2241-6.4779-12.797-10.226-28.473-4.5957-10.455 3.7552-15.582 2.8222-18.896-1.8926-2.8879-4.1084-8.1578-10.142 1.0527-16.721 7.8947-3.2895 17.801 1.789 27.328 0.5664 9.0449-1.1607 10.061-10.627 18.613-14.574 2.1382-0.98684 4.3151-1.475 6.4746-1.5684zm163.75 20.119c7.4349-0.28081 13.745 9.619 22.732 8.332 9.0234-1.2922 10.725 10.94 8.7461 15.861-4.11 10.223-7.9755 22.19-15.801 19.957-7.5203-2.1462-5.1911-7.6466-7.6113-16.75-2.0747-7.8036-12.404-5.4344-14.383-11.174-1.769-5.1303-6.0191-12.399 3.9688-15.789 0.79738-0.27061 1.5785-0.40846 2.3477-0.4375zm-353.45 3.2695c9.3518 0.13947 17.696 2.4973 20.82 6.084 13.275 19.246-15.241 25.354-23.037 21.256-8.9752-5.0055-15.283 6.383-20.111 10.9-7.7025 7.2073-21.154 2.0171-18.291-16.871 1.6873-11.132 12.181-15.375 23.605-19.01 5.4276-1.727 11.403-2.443 17.014-2.3594z" fill="#742a2a" filter="url(#filter1112-9)" opacity="1"/>
 </g>
 <g transform="translate(-.21704 118.77)">
  <path transform="matrix(.25155 0 0 .24282 4.7432 3.8813)" d="m17.544 0s10.504 24.993-2.4766 87.375c-12.247 58.853-24.069 147.55-5.1621 164.33 21.744 19.305 51.873 19.323 61.551-9.709 9.6774-29.032-16.537-117.72-16.537-117.72s-21.678-82.257 18.645-88.709c40.323-6.4516 39.914 67.174 30.236 107.5-9.6774 40.323-12.641 75.132 1.875 81.584 14.516 6.4516 42.082-21.338 35.631-53.596-6.4516-32.258-6.4514-77.421 17.742-72.582 24.194 4.8387 30.883 92.833 22.818 139.61-8.0645 46.774-27.141 88.099 2.5098 101.88 24.64 11.453 43.798-11.279 36.201-41.547-6.1924-24.673-18.22-65.831-16.607-127.12 1.6129-61.29 22.308-81.883 50.209-80.645 24.296 1.0784 35.513 53.613 30.674 87.484-4.8387 33.871-24.901 67.814 1.1367 74.701 26.258 6.9454 13.109-36.074 14.516-79.719 1.4038-43.548-1.2836-77.28 23.984-79.033 20.334-1.4108 21.46 13.353 22.133 38.322 0.7316 27.169-18.909 62.733-2.3301 72.969 18.328 11.315 32.02-12.485 23.955-33.453s-5.2868-74.433-3.6738-88.949c1.6129-14.516 11.976-54.091 42.621-44.414 30.645 9.6774 21.477 109.92 12.695 153.23-8.9971 44.373-35.753 100.93-16.398 123.51 19.355 22.581 46.805 16.19 56.482-8.0039 9.6774-24.194-2.3011-53.346-11.979-130.77-9.6774-77.419 23.98-90.102 37.068-94.414 20.311-6.6906 28.545 16.865 47.908 15.92 22.262-1.0862 18.257-65.74 46.805-52.568 23.059 10.639 27.954 46.901 22.133 156.72-7.1386 134.68-52.242 167.01-15.293 192.8 36.949 25.795 58.683-17.341 42.203-68.131-12.395-38.202-6.6388-146.95-1.582-178.85 7.1684-45.221 15.233-93.07 49.104-75.328 33.871 17.742-24.97 114.37 15.621 118.19 41.128 3.8738 16.845-40.412 18.697-76.941 1.5107-29.8 16.538-38.673 32.555-71.559 8.5849-17.627 6.0176-41.699 6.0176-41.699l2.0781-438.67s1.7603-26.49-6.3773-34.719c-9.0812-9.1832-37.562-6.436-37.562-6.436l-658.51 2.8167s-21.663-1.2134-28.427 5.9404c-5.7056 6.0342-4.3397 24.938-4.3397 24.938zm500.91 23.777c3.2393-0.13996 6.4411 0.60836 9.4201 1.8942 2.979 1.2859 5.7354 3.1093 8.0838 5.1195 3.6184 3.0973 6.6679 7.7256 8.0154 12.769 1.3474 5.043 0.99282 10.501-2.197 15.257-5.9732 8.9061-20.619 12.908-29.422 3.7461-6.2241-6.4779-12.797-10.226-28.473-4.5957-10.455 3.7552-15.582 2.8222-18.896-1.8926-2.8879-4.1084-8.1578-10.142 1.0527-16.721 7.8947-3.2895 17.801 1.789 27.328 0.5664 9.0449-1.1607 10.061-10.627 18.613-14.574 2.1382-0.98684 4.3151-1.475 6.4746-1.5684zm163.75 20.119c7.4349-0.28081 13.745 9.619 22.732 8.332 9.0234-1.2922 10.725 10.94 8.7461 15.861-4.11 10.223-7.9755 22.19-15.801 19.957-7.5203-2.1462-5.1911-7.6466-7.6113-16.75-2.0747-7.8036-12.404-5.4344-14.383-11.174-1.769-5.1303-6.0191-12.399 3.9688-15.789 0.79738-0.27061 1.5785-0.40846 2.3477-0.4375zm-353.45 3.2695c9.3518 0.13947 17.696 2.4973 20.82 6.084 13.275 19.246-15.241 25.354-23.037 21.256-8.9752-5.0055-15.283 6.383-20.111 10.9-7.7025 7.2073-21.154 2.0171-18.291-16.871 1.6873-11.132 12.181-15.375 23.605-19.01 5.4276-1.727 11.403-2.443 17.014-2.3594z" fill="#742a2a" filter="url(#filter1112)"/>
 </g>
</svg>
