<?xml version="1.0" encoding="UTF-8"?>
<svg width="67mm" height="87mm" version="1.1" viewBox="0 0 67 87" xmlns="http://www.w3.org/2000/svg" xmlns:cc="http://creativecommons.org/ns#" xmlns:dc="http://purl.org/dc/elements/1.1/" xmlns:rdf="http://www.w3.org/1999/02/22-rdf-syntax-ns#">
 <metadata>
  <rdf:RDF>
   <cc:Work rdf:about="">
    <dc:format>image/svg+xml</dc:format>
    <dc:type rdf:resource="http://purl.org/dc/dcmitype/StillImage"/>
    <dc:title/>
   </cc:Work>
  </rdf:RDF>
 </metadata>
 <g transform="translate(-73.277 -36.523)">
  <g style="mix-blend-mode:normal">
   <path d="m84.182 81.57s-2.2432-3.3167-4.4028-2.9616c-2.1596 0.35509-4.6072 1.9276-4.7512 3.5001-0.14398 1.5725-0.76787 4.7176 0.71988 6.0872 1.4877 1.3696 4.0049 2.4718 8.2174 0.95692 4.2125-1.5149 0.2167-7.5826 0.2167-7.5826z" fill="#dabcd4"/>
   <path d="m77.802 83.543c0.46175-0.12392 2.297-1.2237 3.7555 1.5254" fill="none" stroke="#732322" stroke-linecap="round" stroke-linejoin="round" stroke-width=".76163"/>
   <g fill="#732322" stroke="#732322" stroke-linecap="round" stroke-linejoin="round">
    <path d="m78.521 84.859c0.3575-0.17712 1.6874-0.18899 2.0449-0.36612l-0.51479-1.039c-0.3575 0.17712-1.1726 1.228-1.5301 1.4051z" stroke-width=".58553"/>
    <path d="m83.965 89.153c-1.3243 0.47309-3.0054 0.98547-4.6624 0.94761-0.62232-0.01422-1.2096-0.10583-1.7548-0.28409-0.52866-0.17284-1.0012-0.4218-1.416-0.73902-0.42616-0.32592-0.77503-0.71149-1.0542-1.1292-0.30816-0.46116-0.52157-0.94674-0.6642-1.4102-0.19906-0.6468-0.25736-1.2382-0.25563-1.6651 0.0016-0.40263 0.04965-0.91479 0.18793-1.4941 0.21395-0.89638 0.63848-1.9176 1.3454-2.8055 0.30891-0.38794 0.66422-0.73986 1.0627-1.0319 0.39139-0.28685 0.81624-0.50991 1.2676-0.65429 0.45951-0.147 0.93282-0.20815 1.4128-0.18317 0.50829 0.02645 1.0098 0.1486 1.5008 0.35094 0.55379 0.22822 1.0796 0.55234 1.5746 0.93381 0.64525 0.49726 1.2079 1.0686 1.672 1.5816-0.46403-0.51291-1.0504-1.064-1.7207-1.514-0.51541-0.34602-1.0549-0.61518-1.6054-0.77606-0.48744-0.14246-0.96202-0.19368-1.4159-0.15463-0.42714 0.03676-0.82478 0.15248-1.19 0.33414-0.35878 0.17844-0.6828 0.41875-0.97083 0.70449-0.29375 0.29142-0.5471 0.62714-0.7607 0.98694-0.49071 0.82658-0.74173 1.7231-0.85396 2.4867-0.07228 0.49185-0.08599 0.91376-0.08731 1.2407-0.0014 0.34505 2.45e-4 0.82418 0.0873 1.3556 0.06234 0.38058 0.16831 0.78717 0.34626 1.1878 0.1608 0.36202 0.37958 0.71718 0.67482 1.0403 0.28781 0.31502 0.6448 0.59571 1.0821 0.82072 0.45271 0.23293 0.97481 0.39752 1.563 0.48442 1.5755 0.23278 3.3071-0.14044 4.6346-0.6147z" stroke-width=".7044" style="mix-blend-mode:normal"/>
    <path d="m77.802 83.543c0.46175-0.12392 2.297-1.2237 3.7555 1.5254" stroke-width=".76163" style="mix-blend-mode:normal"/>
    <path d="m78.521 84.859c0.3575-0.17712 1.6874-0.18899 2.0449-0.36612l-0.51479-1.039c-0.3575 0.17712-1.1726 1.228-1.5301 1.4051z" stroke-width=".58553" style="mix-blend-mode:normal"/>
   </g>
  </g>
  <g>
   <g>
    <path d="m124.76 108.15s-18.04 14.334-24.625 14.009c-8.9516-0.44171-9.3671-7.3328-15.891-18.283-7.5542-12.68-1.7237-41.203 12.667-50.532 8.8895-5.7633 34.686 8.1322 34.686 8.1322s-1.9193 27.494-6.8376 46.674z" fill="#e7bfdf"/>
    <path d="m125.85 84.624s0.48641-6.7292-3.6997-14.56c-2.876-5.3801-11.906-5.9529-14.126-7.7815-2.2204-1.8286 8.8404-2.7902 8.8404-2.7902l5.9524 1.9149 5.6191 9.1129z" fill="#bd88b2"/>
    <path d="m118.06 111.77s3.5584-2.8391 6.66-14.497c2.6507-9.9633 3.5396-16.908 3.5396-16.908l1.0634-17.966 0.35029 23.74-5.1897 21.707s0.0619 1.3191-3.726 2.7559c-3.7878 1.4368-2.6976 1.1676-2.6976 1.1676z" fill="#f9fae7"/>
    <path d="m87.144 103.73c2.8344 6.1985 10.052 16.776 10.052 16.776l-3.7796-1.9675-4.8431-6.2188-6.2738-14.183-0.86453-7.4609s3.9106 9.1197 5.7094 13.053z" fill="#bd88b2"/>
   </g>
   <path d="m124.76 108.15s-20.002 13.932-24.782 13.834c-5.9114-0.12125-9.3565-5.8821-16.025-19.82-6.1731-12.903-1.6818-39.311 12.751-48.575 9.8677-6.3339 34.894 7.8876 34.894 7.8876s0.29728 26.756-6.8376 46.674z" fill="none" stroke="#732322" stroke-linecap="round" stroke-linejoin="round" stroke-width="2.465"/>
  </g>
  <g fill="none" stroke="#bd88b2" stroke-linecap="round" stroke-linejoin="round">
   <g stroke-width="1.265">
    <path d="m105.01 67.074 0.067 5.4896"/>
    <path d="m118.4 89.97s-0.60252 5.1549-4.8871 4.8202"/>
    <path d="m85.003 88.388s0.93099 5.1058 5.1854 4.4977"/>
    <path d="m111.71 67.476c0 0.33473-8.77 3.749-8.77 3.749"/>
    <path d="m107.16 67.677c0.0669 0.33473 0.87031 3.2134 0.87031 3.2134"/>
    <path d="m109.03 66.539 2.1423 3.749"/>
   </g>
   <path d="m95.52 76.244s-3.5913 5.3538-9.6555 0.46747" stroke-width="1.086"/>
   <path d="m119.52 78.049s-4.3763 4.7338-9.6116-1.0318" stroke-width="1.086"/>
  </g>
  <g fill="none" stroke="#722322" stroke-linecap="round" stroke-linejoin="round" stroke-width="1.086">
   <path d="m95.447 75.24s-3.5913 5.3538-9.6555 0.46747"/>
   <path d="m119.44 77.045s-4.3763 4.7338-9.6116-1.0318"/>
  </g>
  <g>
   <path d="m112.16 48.577c-1.5187-2.0293-0.85414-5.4977 1.0061-7.503 2.335-3.4135 10.1-3.0899 14.017-2.1649 4.64 1.0958 8.876 5.1363 10.248 7.1359 0.98262 1.4317 1.6189 4.1643 1.479 5.941-0.52854 2.1452-2.3746 4.8381-6.771 5.3164-3.0515 0.33201-8.615-0.64037-11.396-1.9653-4.0194-1.9151-5.9326-3.2179-8.5835-6.7601z" fill="#502d16" stroke="#3a1800" stroke-width="2.465"/>
   <path d="m126.58 84.501s0.70393-8.8282-1.2833-14.244-13.08-9.3913-22.349-8.9189c-9.2683 0.47237-16.143 3.1637-18.086 7.3508-1.943 4.1871-1.6471 2.7093-1.6471 2.7093s-0.52452-1.4261 0.36734-7.3718c0.89185-5.9457 9.7641-14.858 22.706-14.657 8.9799 0.13943 19.358 2.8233 24.547 8.1033 5.1766 5.2674 5.9939 20.052 0.73792 28.26-2.7999 4.3722-4.9933-1.2318-4.9933-1.2318z" fill="#502d16" stroke="#541515" stroke-linecap="round" stroke-linejoin="round" stroke-width="2.465"/>
   <path d="m130.29 57.107s2.956-0.57678 2.0908-3.1002-3.7491-2.5955-4.8305-2.235-2.1629 1.4419-1.6582 2.7397 4.3979 2.5955 4.3979 2.5955z" fill="#421a00"/>
  </g>
  <g>
   <path d="m116.6 50.226c-0.0654-0.15976 0.28135-0.8114 0.23235-0.95676-0.21891-0.64945-0.41545-1.3922-0.48822-2.1672-0.0723-0.76944-0.0184-1.5269 0.21466-2.2466 0.20281-0.62628 0.53642-1.2082 1.0144-1.7347 0.4517-0.49756 1.018-0.92946 1.6817-1.2905 0.65905-0.35848 1.3917-0.63484 2.1584-0.83528 0.80032-0.20924 1.6169-0.33043 2.4002-0.38279 2.0224-0.13518 3.6826 0.20272 4.5735 0.51011-0.89091-0.30738-2.5219-0.74055-4.5812-0.73764-0.79663 0.0011-1.6389 0.06687-2.4787 0.22319-0.80351 0.14957-1.5938 0.38014-2.3259 0.70796-0.73711 0.33007-1.4028 0.75316-1.9612 1.278-0.5939 0.55819-1.0444 1.2107-1.3404 1.9471-0.34012 0.84608-0.45255 1.7431-0.40528 2.6365 0.0473 0.89385 0.25195 1.7376 0.49034 2.4449 0.0537 0.15927 0.75009 0.44381 0.81546 0.60357z" fill="#421a00"/>
   <path d="m117.35 50.289c-0.0235-0.18769 0.62699-0.76922 0.62199-0.93249-0.0176-0.57475 0.0103-1.2323 0.15897-1.919 0.1572-0.726 0.44306-1.4545 0.91741-2.1443 0.41149-0.59837 0.95242-1.1488 1.6327-1.6268 0.64044-0.44998 1.3821-0.81971 2.2025-1.0975 1.6877-0.57156 3.5448-0.70115 5.2376-0.4876 0.95837 0.1209 1.8198 0.34516 2.562 0.62638 0.97927 0.37104 1.7001 0.82096 2.1972 1.2192-0.49669-0.39789-1.1941-0.87927-2.1579-1.3141-0.73058-0.3296-1.586-0.61895-2.5545-0.81595-1.7037-0.34655-3.6415-0.37934-5.4868 0.07517-0.89944 0.22154-1.7473 0.55237-2.509 0.99483-0.81072 0.47092-1.4981 1.0532-2.0474 1.7311-0.63574 0.78455-1.0466 1.6472-1.2831 2.5227-0.22226 0.82285-0.27798 1.6101-0.25752 2.2783 6e-3 0.19036 0.7423 0.70229 0.76581 0.88998z" fill="#3b0c0c"/>
   <path d="m119.65 50.807c-0.0103-0.0991 0.29684-0.41134 0.29182-0.50279-0.0463-0.84384 0.013-1.7725 0.33418-2.6393 0.14503-0.39136 0.3405-0.76226 0.59572-1.1049 0.23344-0.3134 0.51498-0.6006 0.84917-0.8568 0.62018-0.47544 1.4042-0.8303 2.3422-1.0494 0.88801-0.20741 1.878-0.28448 2.9212-0.24479 2.1509 0.08182 4.3352 0.64868 6.0579 1.3759 0.98267 0.41482 1.7816 0.86569 2.3917 1.3018 0.35795 0.25581 0.64626 0.5029 0.87582 0.73496 0.28324 0.28632 0.47214 0.54468 0.59791 0.76663-0.12568-0.22179-0.31004-0.48327-0.58692-0.77724-0.22449-0.23834-0.50661-0.49456-0.85861-0.76257-0.6003-0.45706-1.3887-0.93607-2.366-1.3859-1.71-0.78704-3.901-1.4333-6.0932-1.5907-1.0637-0.07638-2.0922-0.03417-3.0323 0.14995-0.99313 0.1945-1.86 0.54183-2.5701 1.0465-0.38337 0.27244-0.71351 0.58534-0.99157 0.93433-0.30409 0.38166-0.53924 0.79814-0.71476 1.2378-0.38744 0.97065-0.46268 2.0002-0.41329 2.9 5e-3 0.09809 0.35885 0.36741 0.36913 0.46651z" fill="#421a00"/>
   <path d="m120.65 51.308c0.0181-0.07022 0.36124-0.18959 0.38134-0.25338 0.20505-0.6507 0.53991-1.3588 1.1164-1.9845 0.49616-0.53847 1.1483-0.99041 1.9875-1.3016 0.73938-0.27415 1.5903-0.42594 2.5286-0.44514 0.88838-0.01818 1.8222 0.08344 2.7526 0.28858 0.92683 0.20435 1.8246 0.50579 2.6413 0.87182 0.85592 0.3836 1.6004 0.82774 2.202 1.2925 0.32278 0.24936 0.60109 0.50195 0.8355 0.753 0.2542 0.27225 0.45397 0.53963 0.60509 0.79794 0.17095 0.29219 0.27703 0.56816 0.33336 0.82435 0.0695 0.31611 0.0616 0.59443 0.0157 0.83034 0.0459-0.23549 0.0589-0.5137-2e-3 -0.83309-0.0496-0.25909-0.14717-0.54086-0.30966-0.84242-0.14366-0.26662-0.33594-0.54465-0.58351-0.82991-0.22829-0.26304-0.50102-0.52921-0.81926-0.79367-0.59313-0.49291-1.3322-0.96936-2.1882-1.3882-0.81647-0.39953-1.72-0.73691-2.6599-0.97698-0.94296-0.24085-1.901-0.37827-2.8241-0.39018-0.97457-0.01258-1.8813 0.11487-2.6879 0.38425-0.91874 0.30684-1.659 0.78111-2.2332 1.3741-0.66641 0.68821-1.0521 1.4767-1.277 2.1902-0.022 0.06994 0.20359 0.36178 0.18551 0.432z" fill="#76421f"/>
   <path d="m116.4 50.194c-0.0948-0.07369-0.0216-0.67746-0.0979-0.74975-0.39723-0.37634-0.8905-0.91564-1.2499-1.6927-0.32838-0.70999-0.50794-1.544-0.45611-2.4656 0.0507-0.90061 0.31731-1.7771 0.74172-2.554 0.56706-1.038 1.3177-1.7262 1.8948-2.1122-0.57509 0.3846-1.3812 0.9986-2.0767 1.9995-0.51959 0.74783-0.91819 1.6328-1.0932 2.6022-0.17955 0.99442-0.10326 1.9664 0.19588 2.8438 0.32795 0.96192 0.87253 1.6634 1.3476 2.1135 0.0909 0.0861 0.69909-0.05855 0.79391 0.01514z" fill="#784421"/>
  </g>
  <g fill="#421a00">
   <path d="m91.796 63.353c-0.09546-0.08789 0.02593-0.74059-0.05451-0.82313-0.35965-0.36906-0.74253-0.80369-1.0725-1.2971-0.32787-0.49024-0.58324-1.0082-0.73223-1.5575-0.12959-0.47774-0.17476-0.96468-0.12985-1.464 0.04245-0.47199 0.16418-0.94068 0.35497-1.4037 0.39121-0.94948 1.0384-1.7916 1.6811-2.4661 0.8155-0.85586 1.631-1.4525 1.9574-1.6642-0.29104 0.18872-1.2267 0.74996-2.1134 1.4984-0.71623 0.60452-1.5007 1.4058-2.0414 2.3819-0.26626 0.48065-0.46887 0.9954-0.57998 1.542-0.11815 0.5813-0.12767 1.1736-0.02292 1.7708 0.12025 0.68554 0.3827 1.3298 0.73485 1.9223 0.35229 0.59275 0.77603 1.1026 1.172 1.509 0.08915 0.09148 0.75095-0.03647 0.84641 0.05142z"/>
   <path d="m97.934 61.812c-0.09912-0.16111 0.2522-0.9598 0.18004-1.1063-0.25401-0.51587-0.50091-1.1259-0.64992-1.8126-0.15753-0.72593-0.199-1.5074-0.05285-2.3317 0.12679-0.71505 0.39124-1.4401 0.81253-2.1568 0.39663-0.67479 0.9186-1.3184 1.5503-1.911 1.2995-1.2191 2.9363-2.106 4.5656-2.6126 0.92242-0.28679 1.7994-0.43938 2.5914-0.49074 1.045-0.06777 1.8875 0.04328 2.5049 0.19993-0.61686-0.15651-1.451-0.3059-2.5083-0.3026-0.80148 0.0025-1.6999 0.09332-2.663 0.31504-1.6943 0.39004-3.4717 1.1626-4.9632 2.3404-0.72698 0.5741-1.3618 1.2263-1.8719 1.9445-0.54294 0.76435-0.92749 1.579-1.1468 2.4235-0.25381 0.97737-0.27058 1.9327-0.12329 2.8276 0.13842 0.84102 0.41369 1.5807 0.70901 2.1805 0.08413 0.17086 0.96647 0.33188 1.0656 0.49299z"/>
   <path d="m92.265 64.164c-0.0765-0.02851-0.17693-0.42294-0.24756-0.45175-0.65103-0.26561-1.3606-0.61319-1.9892-1.0745-0.54764-0.40188-0.99992-0.86519-1.3182-1.4008-0.27964-0.47055-0.44724-0.98262-0.49741-1.535-0.04762-0.52437 0.01216-1.0697 0.16627-1.6228 0.15343-0.55065 0.39553-1.0915 0.69517-1.6033 0.31321-0.535 0.68201-1.0261 1.0632-1.4558 0.42743-0.48183 0.86306-0.87866 1.2587-1.1876 0.5214-0.40712 0.96344-0.6551 1.2832-0.79752-0.31948 0.1423-0.76952 0.37418-1.3116 0.75943-0.41132 0.29234-0.8698 0.66954-1.3279 1.1343-0.40819 0.41413-0.8112 0.89322-1.1634 1.4236-0.33653 0.5068-0.62264 1.0546-0.81967 1.6262-0.19792 0.57421-0.30252 1.1626-0.28499 1.7493 0.01855 0.62089 0.17318 1.2157 0.46672 1.7724 0.33345 0.63236 0.82431 1.1746 1.4131 1.6344 0.67263 0.52532 1.4333 0.91197 2.1159 1.1905 0.07448 0.03039 0.42112-0.18966 0.49761-0.16114z"/>
  </g>
  <g>
   <path d="m102.43 60.632c-0.0493-0.05314 0.0314-0.40821-0.0129-0.45948-0.45295-0.52365-0.91056-1.1588-1.2209-1.8861-0.26677-0.62514-0.41029-1.2845-0.38382-1.974 0.0233-0.60774 0.17816-1.2185 0.46908-1.8242 0.2759-0.57448 0.66469-1.1243 1.143-1.6384 0.98542-1.0593 2.266-1.8791 3.4682-2.4207 0.68437-0.30827 1.3226-0.518 1.8741-0.64977 0.72756-0.17384 1.2818-0.20789 1.6666-0.18931-0.38459-0.01857-0.93876-6.7e-4 -1.6757 0.14776-0.5587 0.11253-1.2085 0.29797-1.9119 0.58112-1.2314 0.49571-2.573 1.2725-3.6381 2.3198-0.51804 0.50935-0.95548 1.0685-1.2789 1.6697-0.34177 0.63527-0.54528 1.2971-0.59969 1.9749-0.0619 0.77081 0.0727 1.5146 0.34976 2.2154 0.32051 0.81081 0.8096 1.5086 1.2889 2.0627 0.0471 0.0545 0.41307 0.01752 0.4624 0.07066z" fill="#784421"/>
   <path d="m93.768 62.521c-0.09482-0.07369-0.01686-0.67639-0.09188-0.7494-0.3894-0.37899-0.87616-0.93978-1.2154-1.7752-0.30987-0.76318-0.45885-1.6719-0.35439-2.6596 0.10204-0.96491 0.43453-1.8854 0.93744-2.6678 0.67587-1.0516 1.5314-1.6645 2.197-1.9782-0.662 0.31199-1.5659 0.84405-2.3707 1.8534-0.59875 0.75083-1.064 1.675-1.2937 2.7045-0.2351 1.0536-0.19606 2.0957 0.07751 3.0259 0.30116 1.0239 0.83835 1.757 1.3164 2.2224 0.09122 0.08879 0.70285-0.04946 0.79767 0.02423z" fill="#784421"/>
   <path d="m107.41 61.162c-0.093-0.12241 0.10744-0.7954 0.0333-0.90802-0.3318-0.50385-0.65955-1.0877-0.8826-1.7252-0.2211-0.6319-0.32657-1.2801-0.26659-1.937 0.0522-0.57227 0.22908-1.1383 0.54446-1.6912 0.29804-0.52245 0.70914-1.0139 1.2156-1.4647 1.0411-0.92686 2.3781-1.5894 3.6363-1.9877 0.71321-0.22574 1.3765-0.35964 1.9476-0.42596 0.75412-0.08756 1.3254-0.05593 1.7172 0.01167-0.39147-0.06755-0.95866-0.12968-1.7238-0.09244-0.57958 0.02821-1.2586 0.11342-2.0012 0.28718-1.3006 0.3043-2.7458 0.8716-3.9381 1.7622-0.58288 0.43539-1.0912 0.93814-1.4865 1.5079-0.42055 0.60619-0.69824 1.2667-0.81842 1.9706-0.13823 0.80966-0.0577 1.6147 0.17141 2.3819 0.22903 0.7669 0.5935 1.4525 0.96112 2.0108 0.0828 0.1257 0.7972 0.17748 0.89021 0.29989z" fill="#421a00"/>
   <path d="m110.11 61.519c-0.0665-0.15367 0.42224-0.82935 0.38016-0.96364-0.14818-0.47293-0.27215-1.0217-0.29215-1.6223-0.0211-0.63411 0.0745-1.304 0.35365-1.9907 0.24247-0.59649 0.61603-1.1862 1.1345-1.7481 0.48789-0.5287 1.0849-1.0116 1.7688-1.4314 1.4068-0.8636 3.0374-1.3752 4.5416-1.5365 0.85239-0.09145 1.6247-0.06738 2.2924 0.0364 0.88213 0.13712 1.5311 0.40446 1.9794 0.6744-0.44726-0.2693-1.0785-0.57215-1.9599-0.77526-0.6676-0.15385-1.4494-0.24291-2.3303-0.22326-1.5485 0.03454-3.2912 0.40718-4.873 1.1885-0.77037 0.38053-1.4769 0.84623-2.0827 1.3905-0.64478 0.57929-1.1568 1.2306-1.5194 1.9381-0.42039 0.82011-0.61261 1.6613-0.63264 2.4785-0.0188 0.76737 0.11527 1.4631 0.29484 2.0362 0.0511 0.16317 0.87828 0.39482 0.94477 0.54849z" fill="#3b0c0c"/>
   <path d="m113.77 62.71c-0.0103-0.0991 0.295-0.41518 0.28889-0.50806-0.0564-0.85635-0.0353-1.8221 0.19213-2.7691 0.19807-0.82486 0.54095-1.5869 1.0677-2.2516 0.46363-0.58504 1.0522-1.0723 1.76-1.4566 0.67067-0.36417 1.4237-0.62232 2.2244-0.78633 1.646-0.33714 3.3599-0.25138 4.7212-0.0012 0.77653 0.14268 1.4236 0.33496 1.9192 0.53001 0.29189 0.11487 0.53145 0.23057 0.72444 0.34076 0.23826 0.13604 0.40393 0.26267 0.51801 0.37228-0.11396-0.1095-0.2766-0.24065-0.5102-0.3854-0.18964-0.11752-0.42527-0.24349-0.71392-0.37146-0.49043-0.21741-1.1352-0.43996-1.9106-0.61713-1.3588-0.31047-3.0994-0.47452-4.8088-0.19998-0.83312 0.13381-1.6356 0.36867-2.3661 0.72571-0.77236 0.37753-1.4375 0.8786-1.9744 1.5055-0.61123 0.71369-1.0171 1.5444-1.2556 2.4423-0.27256 1.0258-0.30736 2.066-0.24814 2.9658 6e-3 0.09799 0.36134 0.36548 0.37162 0.46458z" fill="#421a00"/>
   <path d="m113.45 62.103c-0.0319-0.06511 0.14905-0.3808 0.12191-0.4426-0.27696-0.63052-0.51466-1.3792-0.55653-2.19-0.036-0.69644 0.0745-1.4054 0.38606-2.1007 0.27461-0.61288 0.69649-1.194 1.268-1.7209 0.54166-0.49942 1.1997-0.93316 1.9444-1.2857 1.5405-0.72941 3.3077-1.0472 4.9292-0.99186 0.92229 0.03148 1.7542 0.18071 2.4744 0.40516 0.95009 0.29608 1.6467 0.70334 2.1365 1.081-0.48948-0.37735-1.177-0.7982-2.1233-1.1214-0.71761-0.24509-1.5504-0.42173-2.4816-0.48436-1.6343-0.10991-3.4449 0.14498-5.0594 0.83553-0.78113 0.3341-1.4876 0.75892-2.0826 1.2651-0.6282 0.53452-1.114 1.1443-1.4435 1.8107-0.37509 0.75863-0.52697 1.5478-0.50704 2.3286 0.0231 0.90426 0.27447 1.7321 0.57128 2.4078 0.0292 0.06645 0.39033 0.13846 0.42224 0.20357z" fill="#784421"/>
   <path d="m104.39 61.035c-0.12019-0.06644-0.16776-0.69502-0.25976-0.76151-0.21084-0.15238-0.44073-0.33844-0.65922-0.56884-0.26745-0.28201-0.50792-0.62006-0.68254-1.0318-0.14986-0.35337-0.24707-0.75162-0.27516-1.1966-0.0263-0.41717 9e-3 -0.86045 0.10753-1.3204 0.2017-0.94301 0.64688-1.8619 1.2041-2.645 0.74374-1.0452 1.5626-1.6867 2.1232-2.0074-0.56075 0.32084-1.426 0.88342-2.2911 1.8748-0.64367 0.73765-1.2196 1.6432-1.5539 2.634-0.16386 0.48556-0.26464 0.97745-0.29074 1.4642-0.0279 0.52074 0.0305 1.018 0.17219 1.4829 0.16576 0.54406 0.43401 1.0067 0.75427 1.3911 0.25956 0.31155 0.54089 0.55688 0.79864 0.74316 0.11277 0.08151 0.73232-0.12508 0.85251-0.05865z" fill="#784421"/>
   <path d="m117.9 63.82c-0.0347-0.09827 0.74682-0.65211 0.72244-0.7363-0.18194-0.62835-0.30842-1.3095-0.26615-1.9921 0.0196-0.31696 0.0754-0.62959 0.17564-0.9361 0.0916-0.27997 0.22078-0.55612 0.39473-0.8266 0.32303-0.5023 0.79378-0.97384 1.4274-1.3958 0.59924-0.39902 1.3098-0.73037 2.094-0.99073 0.77892-0.25858 1.5999-0.43694 2.4034-0.54558 0.8397-0.11353 1.64-0.14835 2.3422-0.12691 0.789 0.02409 1.4382 0.11801 1.9276 0.24538 0.28786 0.07492 0.51909 0.16082 0.70101 0.25136 0.22479 0.11188 0.37109 0.22918 0.46219 0.34-0.0905-0.11015-0.22654-0.23915-0.44126-0.37687-0.17409-0.11166-0.39732-0.22726-0.68088-0.33972-0.48301-0.19157-1.1297-0.36881-1.9351-0.48942-0.71568-0.10717-1.5411-0.1667-2.425-0.14852-0.84377 0.01735-1.7294 0.10552-2.5954 0.28602-0.86931 0.18118-1.7094 0.45341-2.4636 0.83413-0.79859 0.40309-1.4862 0.92032-2.0162 1.5624-0.28664 0.34726-0.51984 0.72223-0.69904 1.1212-0.19637 0.4372-0.32191 0.88986-0.38731 1.3476-0.13955 0.97666 3e-3 1.9159 0.22674 2.6884 0.0304 0.10507 0.9979 0.12988 1.0326 0.22814z" fill="#421a00"/>
   <path d="m121.5 65.73c-0.0235-0.18769 0.62585-0.76555 0.6202-0.92502-0.02-0.56397 3e-3 -1.1828 0.13509-1.7982 0.13885-0.64853 0.39042-1.2568 0.7983-1.7938 0.35414-0.46622 0.81826-0.86788 1.3995-1.189 0.54762-0.30259 1.1758-0.52039 1.8568-0.65324 1.3986-0.27283 2.8651-0.15979 4.032 0.14546 0.66239 0.17328 1.2041 0.40079 1.615 0.64185 0.24135 0.14159 0.43513 0.28621 0.5878 0.42761 0.18889 0.17493 0.31147 0.3417 0.38798 0.48958-0.0762-0.14734-0.18883-0.32092-0.36448-0.51293-0.1422-0.15544-0.32388-0.32085-0.55483-0.49007-0.3936-0.2884-0.92069-0.5801-1.5837-0.83066-1.159-0.438-2.6803-0.72433-4.2194-0.58965-0.75221 0.06583-1.4887 0.23138-2.1674 0.51758-0.72378 0.3052-1.3568 0.73706-1.8714 1.2963-0.59618 0.64789-0.9836 1.4121-1.2051 2.2228-0.20765 0.76002-0.25683 1.514-0.23374 2.1655 7e-3 0.18566 0.74387 0.68816 0.76738 0.87586z" fill="#3b0c0c"/>
   <path d="m123.63 67.732c2.8e-4 -0.08529 0.33657-0.324 0.33982-0.40267 0.03-0.72706 0.13461-1.5177 0.40708-2.2445 0.23673-0.63154 0.58522-1.1752 1.0727-1.6033 0.42962-0.37729 0.95351-0.65263 1.5674-0.82507 0.58196-0.16347 1.2199-0.22733 1.8838-0.21189 0.66001 0.01534 1.3241 0.10854 1.9493 0.24443 0.65274 0.14187 1.2533 0.32804 1.757 0.51512 0.56499 0.20982 1.0073 0.41953 1.3158 0.59187 0.18138 0.10134 0.31771 0.19043 0.41566 0.26516 0.0563 0.04292 0.10007 0.08126 0.13353 0.11522 0.0385 0.03909 0.0632 0.07233 0.0779 0.10044-0.0146-0.02805-0.038-0.0622-0.0746-0.10351-0.0318-0.03591-0.0734-0.07714-0.12717-0.12398-0.0938-0.08162-0.22467-0.18028-0.40083-0.29402-0.29774-0.19225-0.73109-0.43104-1.2902-0.67514-0.49772-0.21729-1.0951-0.43836-1.7515-0.61764-0.62779-0.17146-1.3047-0.30326-1.988-0.35516-0.68636-0.05213-1.3678-0.02278-2.0082 0.12063-0.6778 0.15177-1.2874 0.42629-1.8056 0.83851-0.59063 0.46983-1.018 1.083-1.3074 1.7903-0.33007 0.8066-0.45623 1.6756-0.48803 2.4453-3e-3 0.08385 0.32183 0.34471 0.32155 0.43z" fill="#421a00"/>
   <path d="m123.94 68.79c-3e-3 -0.05251 0.28969-0.21392 0.28914-0.2629-6e-3 -0.49882 0.0409-1.0849 0.22484-1.697 0.15833-0.52688 0.4112-1.0483 0.78838-1.5383 0.33234-0.43172 0.74911-0.82293 1.2483-1.1596 0.47318-0.31912 1.0054-0.57891 1.5771-0.77371 1.1814-0.40252 2.4302-0.49493 3.5261-0.3511 0.62307 0.08178 1.17 0.23557 1.6318 0.42917 0.60869 0.25521 1.037 0.56523 1.3267 0.83972-0.28925-0.27409-0.70731-0.5969-1.3094-0.87862-0.457-0.21382-1.002-0.395-1.6306-0.50864-1.1034-0.19949-2.3872-0.17368-3.6346 0.18053-0.60428 0.1716-1.1787 0.41478-1.6998 0.72858-0.5501 0.33127-1.0242 0.73115-1.412 1.1889-0.44105 0.52052-0.74801 1.0888-0.94475 1.6728-0.22804 0.67685-0.29256 1.3283-0.28639 1.874 6.1e-4 0.05364 0.30253 0.20367 0.30516 0.25618z" fill="#784421"/>
   <path d="m126 73.141c0.0302-0.09627 0.64636-0.18781 0.67807-0.27242 0.2934-0.78264 0.73399-1.7055 1.4996-2.477 0.63858-0.64345 1.4239-1.0972 2.3247-1.315 0.88549-0.214 1.7775-0.17341 2.557 0.03317 1.0438 0.27661 1.727 0.79928 2.081 1.2022-0.3496-0.39796-0.96873-0.99842-2.0088-1.4181-0.77518-0.31281-1.7193-0.49186-2.7257-0.3827-1.0297 0.11169-2.0076 0.51354-2.842 1.2018-0.99443 0.82026-1.5904 1.885-1.9212 2.7675-0.036 0.09609 0.38755 0.56429 0.3573 0.66055z" fill="#421a00"/>
   <path d="m126.56 75.76c0.0484-0.07432 0.52421-0.0565 0.57148-0.12205 0.47178-0.65422 1.1023-1.3778 1.9684-1.9033 0.71512-0.43385 1.4764-0.6609 2.2402-0.70197 0.36113-0.01942 0.70463 0.0039 1.0197 0.05695 0.32884 0.05533 0.62014 0.14183 0.86461 0.24109 0.274 0.11126 0.48588 0.23696 0.638 0.3558 0.0896 0.07 0.15869 0.13767 0.21055 0.20051 0.0641 0.0777 0.10145 0.1474 0.12082 0.20613-0.0193-0.05855-0.0504-0.13114-0.10549-0.21728-0.0447-0.06984-0.10509-0.14828-0.18637-0.23299-0.13809-0.14392-0.3371-0.30579-0.60455-0.4606-0.23909-0.13839-0.53131-0.27019-0.8712-0.3731-0.32537-0.09852-0.68988-0.16909-1.0834-0.19336-0.83296-0.05138-1.7128 0.10946-2.5632 0.53584-1.0249 0.51386-1.7874 1.3027-2.3012 2.0152-0.0519 0.07192 0.13006 0.51876 0.0817 0.59308z" fill="#3b0c0c"/>
   <path d="m127.16 79.512c0.0291-0.02922 0.3468 0.12291 0.37504 0.0959 0.50394-0.48192 1.2072-1.065 2.1073-1.4758 0.70696-0.32273 1.4342-0.48936 2.0958-0.45682 0.31609 0.01554 0.60503 0.07625 0.8586 0.1783 0.26559 0.10687 0.48732 0.25697 0.6622 0.44175 0.19678 0.20792 0.32718 0.45208 0.40121 0.71286 0.0975 0.34357 0.0899 0.68912 0.0437 0.9742 0.0459-0.28355 0.0723-0.62858 2e-3 -0.98524-0.0531-0.27125-0.16039-0.54117-0.34498-0.78776-0.16463-0.21992-0.38535-0.41368-0.66429-0.56634-0.26613-0.14565-0.57693-0.24922-0.92354-0.30356-0.72495-0.11365-1.5401-3e-3 -2.3368 0.29306-1.0093 0.37505-1.8183 0.97972-2.3592 1.497-0.0305 0.0292 0.11159 0.35327 0.0825 0.38249z" fill="#421a00"/>
   <path d="m127.25 78.607c0.0181-0.03212 0.32863 0.02562 0.34649-0.0038 0.35306-0.58218 0.8935-1.2702 1.7472-1.7957 0.6656-0.40979 1.4188-0.65248 2.156-0.69418 0.35111-0.01986 0.68186 0.0072 0.97757 0.07508 0.30975 0.07105 0.57364 0.18496 0.78438 0.32983 0.23694 0.16288 0.39963 0.35967 0.49719 0.57166 0.12919 0.28069 0.13463 0.56564 0.0912 0.80237 0.043-0.23446 0.0553-0.52046-0.0518-0.81845-0.0815-0.22675-0.22939-0.4511-0.46356-0.65054-0.20819-0.17732-0.47677-0.3278-0.80052-0.43597-0.30876-0.10316-0.6597-0.16502-1.0379-0.17658-0.79241-0.02421-1.6319 0.17308-2.3923 0.57602-0.97712 0.51775-1.6238 1.2623-2.0156 1.9083-0.0198 0.03265 0.17981 0.27989 0.16169 0.31202z" fill="#784421"/>
  </g>
  <path d="m126.58 84.501s0.70393-8.8282-1.2833-14.244c-1.9872-5.4159-13.08-9.3913-22.349-8.9189-9.2683 0.47237-16.143 3.1637-18.086 7.3508-1.943 4.1871-1.6471 2.7093-1.6471 2.7093s-0.52452-1.4261 0.36734-7.3718c0.89185-5.9457 9.7641-14.858 22.706-14.657 8.9799 0.13943 19.358 2.8233 24.547 8.1033 5.1766 5.2674 5.994 20.052 0.73792 28.26-2.7998 4.3722-4.9933-1.2318-4.9933-1.2318z" fill="none" stroke="#3a1800" stroke-linecap="round" stroke-linejoin="round" stroke-width="2.465"/>
  <g fill="#9aa9d7" stroke-linecap="round" stroke-linejoin="bevel">
   <ellipse transform="scale(-1,1)" cx="-113.35" cy="86.388" rx="3.5938" ry="5.0664" stroke-width=".61863"/>
   <ellipse transform="scale(-1,1)" cx="-90.157" cy="85.295" rx="3.5938" ry="4.974" stroke-width=".61296"/>
  </g>
  <g>
   <ellipse transform="scale(-1,1)" cx="-113.37" cy="85.328" rx="3.3082" ry="4.2249"/>
   <ellipse transform="scale(-1,1)" cx="-90.078" cy="84.407" rx="2.7478" ry="3.4966" fill="#fff" stroke="#732322" stroke-linecap="round" stroke-linejoin="round" stroke-width="1.347"/>
   <path d="m113.2 81.181c-1.3451 0-3.282 1.4437-3.0374 4.3785 0.24457 2.9348 2.067 3.8697 3.0452 3.8697 0 0-2.2336-1.6539-2.2878-4.0669-0.0579-2.576 2.28-4.1813 2.28-4.1813z" fill="#7c4572" stroke="#7c4572" stroke-width=".26458px"/>
   <g fill="#732322" stroke="#732322" stroke-linecap="round" stroke-linejoin="round" stroke-width=".58553">
    <path d="m87.642 79.629c0.10696 0.27489 0.13857 1.2121 0.24553 1.487 0.03697 0.09502 0.43712 0.26754 0.47409 0.36256-0.03697-0.09502 0.14136-0.49262 0.10439-0.58764-0.10695-0.27489-0.71706-0.98703-0.82402-1.2619z" style="mix-blend-mode:normal"/>
    <path d="m89.763 79.191c0.01408 0.29463-0.25371 1.1933-0.23964 1.488 0.0049 0.10184 0.32947 0.39256 0.33434 0.4944-0.0049-0.10184 0.29055-0.42218 0.28569-0.52402-0.01407-0.29463-0.36631-1.1637-0.38039-1.4583z" style="mix-blend-mode:normal"/>
    <path d="m91.931 79.521c-0.08199 0.28334-0.62608 1.0471-0.70807 1.3305-0.02834 0.09794 0.18478 0.47803 0.15644 0.57597 0.02834-0.09794 0.41149-0.3055 0.43983-0.40344 0.08199-0.28334 0.02981-1.2196 0.1118-1.503z" style="mix-blend-mode:normal"/>
   </g>
  </g>
  <g style="mix-blend-mode:normal">
   <path d="m124.92 88.249c0.6255-1.9195 2.6491-3.3925 4.2515-3.998 1.6024-0.60555 4.8064-0.03079 6.1255 2.4646 1.4408 2.7254-0.86101 7.4636-1.9449 8.244-1.0839 0.7804-5.5895 1.1336-7.4503-0.95771-1.2364-1.3896-1.5876-3.8934-0.98174-5.7528z" fill="#e7bfdf"/>
   <g stroke="#732322" stroke-linecap="round" stroke-linejoin="round">
    <path d="m125.19 93.872c1.3687 0.71924 3.189 1.3909 4.925 1.387 0.64795-0.0015 1.2348-0.09677 1.7556-0.2758 0.50299-0.17293 0.92594-0.41759 1.2782-0.70861 0.36125-0.29848 0.64381-0.64204 0.86463-1.0006 0.24437-0.39679 0.41217-0.8102 0.52971-1.2019 0.16415-0.54709 0.22996-1.051 0.27508-1.414 0.0428-0.3439 0.0855-0.78966 0.0749-1.3167-0.0164-0.81807-0.16377-1.7952-0.57932-2.7243-0.18087-0.4044-0.40802-0.78777-0.6851-1.1282-0.27166-0.3338-0.589-0.62345-0.95336-0.8505-0.37102-0.23121-0.78734-0.39533-1.2478-0.47692-0.48934-0.0867-1.0142-0.07763-1.5659 0.02954-1.4763 0.28674-2.8843 1.223-3.944 2.1665 1.0533-0.93768 2.3926-1.9661 3.879-2.4245 0.56104-0.173 1.1224-0.25806 1.6783-0.23871 0.525 0.01827 1.0317 0.12934 1.5125 0.33266 0.4723 0.19974 0.90545 0.48261 1.2937 0.83167 0.39522 0.35534 0.73517 0.77135 1.0195 1.2213 0.6505 1.0296 0.97428 2.1732 1.0852 3.1559 0.0717 0.63542 0.0541 1.1879 6.8e-4 1.6173-0.0566 0.45527-0.20159 1.0778-0.50756 1.7387-0.21925 0.47356-0.51864 0.96018-0.91748 1.4058-0.3613 0.40366-0.79357 0.76159-1.3008 1.043-0.49359 0.2739-1.0395 0.46508-1.6347 0.56569-0.61384 0.10376-1.2605 0.10802-1.9341 0.02393-1.794-0.22399-3.5359-1.0405-4.9017-1.7582z" fill="#732322" stroke-width=".78437"/>
    <path d="m132.2 88.749s-3.4829-1.5973-4.9373 2.5437" fill="none" stroke-width=".8481"/>
    <path d="m130.07 90.254c-0.25423-0.19329-0.83558-1.0117-1.0898-1.205-0.0438-0.03333-0.35666 0.1052-0.40049 0.07187 0.0438 0.03333-6e-3 0.3718 0.0378 0.40513 0.25423 0.19329 1.1982 0.53468 1.4525 0.72797z" fill="#732322" stroke-width=".45592"/>
   </g>
  </g>
  <g>
   <path d="m109.12 104.02s2.4199-0.19381-0.18979-3.7363c-1.924-2.6117-5.4621-3.5954-9.8925-2.8023-4.4304 0.79309-6.0083 5.3402-6.0083 5.3402s-0.48553 1.4804 1.1531 1.1103c1.6386-0.37011 2.4883-1.5333 7.829-1.1103 5.3408 0.42298 7.1085 1.1984 7.1085 1.1984z" fill="#732322" stroke="#c53a5c" stroke-width=".609"/>
  </g>
  <g>
   <path d="m96.272 103.85s0.93934-3.0717 4.3078-3.6451c2.2249-0.37871 4.5253 0.024 5.9646 1.0414 0.7563 0.53461 1.858 2.08 0.33137 2.4616-0.94677 0.23669-3.3029-0.57773-4.9706-0.56806-1.8926 0.011-5.6333 0.71007-5.6333 0.71007z" fill="#e73544"/>
  </g>
  <g fill="#fff">
   <path d="m106.96 99.844-1.7451 0.14443c-0.29037 0.02403-0.49818 0.27854-0.456 0.56973l0.36911 2.5474c0.0421 0.2912 0.22958 0.0537 0.52139 0.0425l1.188-0.0453c0.29182-0.0111 0.71598 0.21836 0.71588-0.0734l-9.7e-4 -2.7026c-1.3e-4 -0.29171-0.3019-0.507-0.59226-0.48297z"/>
   <path d="m98.583 100-1.665-0.5422c-0.27704-0.09022-0.57093 0.06309-0.64095 0.34886l-0.80093 3.2688c-0.07002 0.28577 0.18333 0.3205 0.46431 0.24097l1.2684-0.359c0.28099-0.0795 0.57568 0.47844 0.6885 0.20937l1.045-2.4923c0.11277-0.26903-0.08217-0.58433-0.3592-0.67455z"/>
  </g>
 </g>
 <path d="m17.505 68.342c0.18122-0.06889 0.81376-0.02202 0.99553-0.08428 2.9073-0.99589 7.7442-2.1915 13.653-1.4283 2.4333 0.27085 4.4392 0.80714 5.6644 1.2349-1.2646-0.44154-3.1476-1.0808-5.6268-1.5021-5.9378-0.90272-10.901 0.19267-13.858 1.2055-0.18501 0.06338-0.64647 0.50538-0.82769 0.57426z" fill="#732322" stroke="#c53a5c" stroke-linecap="round" stroke-linejoin="round" stroke-width=".62799"/>
</svg>
