<?xml version="1.0" encoding="UTF-8" standalone="no"?>
<svg
   xmlns:dc="http://purl.org/dc/elements/1.1/"
   xmlns:cc="http://creativecommons.org/ns#"
   xmlns:rdf="http://www.w3.org/1999/02/22-rdf-syntax-ns#"
   xmlns:svg="http://www.w3.org/2000/svg"
   xmlns="http://www.w3.org/2000/svg"
   xmlns:sodipodi="http://sodipodi.sourceforge.net/DTD/sodipodi-0.dtd"
   xmlns:inkscape="http://www.inkscape.org/namespaces/inkscape"
   width="70.72921mm"
   height="90mm"
   viewBox="0 0 70.729209 90.000001"
   version="1.1"
   id="svg8"
   sodipodi:docname="Jace.svg"
   inkscape:version="1.0.1 (c497b03c, 2020-09-10)">
  <defs
     id="defs2">
    <inkscape:path-effect
       effect="powerstroke"
       id="path-effect1332"
       is_visible="true"
       lpeversion="1"
       offset_points="0.1169853,0.23379675"
       sort_points="true"
       interpolator_type="CubicBezierJohan"
       interpolator_beta="0.2"
       start_linecap_type="zerowidth"
       linejoin_type="extrp_arc"
       miter_limit="4"
       scale_width="1"
       end_linecap_type="zerowidth" />
    <inkscape:path-effect
       effect="powerstroke"
       id="path-effect1328"
       is_visible="true"
       lpeversion="1"
       offset_points="0.040033106,0.24767324"
       sort_points="true"
       interpolator_type="CubicBezierJohan"
       interpolator_beta="0.2"
       start_linecap_type="zerowidth"
       linejoin_type="extrp_arc"
       miter_limit="4"
       scale_width="1"
       end_linecap_type="zerowidth" />
    <inkscape:path-effect
       effect="powerstroke"
       id="path-effect1324"
       is_visible="true"
       lpeversion="1"
       offset_points="0.045285908,0.24784071"
       sort_points="true"
       interpolator_type="CubicBezierJohan"
       interpolator_beta="0.2"
       start_linecap_type="zerowidth"
       linejoin_type="extrp_arc"
       miter_limit="4"
       scale_width="1"
       end_linecap_type="zerowidth" />
    <inkscape:path-effect
       effect="powerstroke"
       id="path-effect1320"
       is_visible="true"
       lpeversion="1"
       offset_points="0.071986337,0.24607542"
       sort_points="true"
       interpolator_type="CubicBezierJohan"
       interpolator_beta="0.2"
       start_linecap_type="zerowidth"
       linejoin_type="extrp_arc"
       miter_limit="4"
       scale_width="1"
       end_linecap_type="zerowidth" />
    <inkscape:path-effect
       effect="powerstroke"
       id="path-effect1316"
       is_visible="true"
       lpeversion="1"
       offset_points="0.23505907,0.18386801"
       sort_points="true"
       interpolator_type="CubicBezierJohan"
       interpolator_beta="0.2"
       start_linecap_type="zerowidth"
       linejoin_type="extrp_arc"
       miter_limit="4"
       scale_width="1"
       end_linecap_type="zerowidth" />
    <inkscape:path-effect
       effect="powerstroke"
       id="path-effect1315"
       is_visible="true"
       lpeversion="1"
       offset_points="0.89725759,0.51271848"
       sort_points="true"
       interpolator_type="CubicBezierJohan"
       interpolator_beta="0.2"
       start_linecap_type="zerowidth"
       linejoin_type="extrp_arc"
       miter_limit="4"
       scale_width="1"
       end_linecap_type="zerowidth" />
    <inkscape:path-effect
       effect="spiro"
       id="path-effect1313"
       is_visible="true"
       lpeversion="1" />
    <inkscape:path-effect
       effect="simplify"
       id="path-effect1311"
       is_visible="true"
       lpeversion="1"
       steps="1"
       threshold="0.00645161"
       smooth_angles="360"
       helper_size="0"
       simplify_individual_paths="false"
       simplify_just_coalesce="false" />
    <inkscape:path-effect
       effect="powerstroke"
       id="path-effect1309"
       is_visible="true"
       lpeversion="1"
       offset_points="0.44127434,-0.80587565"
       sort_points="true"
       interpolator_type="CubicBezierJohan"
       interpolator_beta="0.2"
       start_linecap_type="zerowidth"
       linejoin_type="extrp_arc"
       miter_limit="4"
       scale_width="1"
       end_linecap_type="zerowidth" />
    <inkscape:path-effect
       effect="powerstroke"
       id="path-effect1307"
       is_visible="true"
       lpeversion="1"
       offset_points="0.85294456,0.30557735"
       sort_points="true"
       interpolator_type="CubicBezierJohan"
       interpolator_beta="0.2"
       start_linecap_type="zerowidth"
       linejoin_type="extrp_arc"
       miter_limit="4"
       scale_width="1"
       end_linecap_type="zerowidth" />
    <inkscape:path-effect
       effect="spiro"
       id="path-effect1305"
       is_visible="true"
       lpeversion="1" />
    <inkscape:path-effect
       effect="simplify"
       id="path-effect1303"
       is_visible="true"
       lpeversion="1"
       steps="1"
       threshold="0.00645161"
       smooth_angles="360"
       helper_size="0"
       simplify_individual_paths="false"
       simplify_just_coalesce="false" />
    <inkscape:path-effect
       effect="powerstroke"
       id="path-effect1301"
       is_visible="true"
       lpeversion="1"
       offset_points="0.44127434,-0.80587565"
       sort_points="true"
       interpolator_type="CubicBezierJohan"
       interpolator_beta="0.2"
       start_linecap_type="zerowidth"
       linejoin_type="extrp_arc"
       miter_limit="4"
       scale_width="1"
       end_linecap_type="zerowidth" />
    <inkscape:path-effect
       effect="powerstroke"
       id="path-effect1206"
       is_visible="true"
       lpeversion="1"
       offset_points="0,0.274225"
       sort_points="true"
       interpolator_type="CubicBezierJohan"
       interpolator_beta="0.2"
       start_linecap_type="zerowidth"
       linejoin_type="extrp_arc"
       miter_limit="4"
       scale_width="1"
       end_linecap_type="zerowidth" />
    <inkscape:path-effect
       effect="spiro"
       id="path-effect1204"
       is_visible="true"
       lpeversion="1" />
    <inkscape:path-effect
       effect="simplify"
       id="path-effect1202"
       is_visible="true"
       lpeversion="1"
       steps="1"
       threshold="0.00172414"
       smooth_angles="360"
       helper_size="0"
       simplify_individual_paths="false"
       simplify_just_coalesce="false" />
    <inkscape:path-effect
       effect="powerstroke"
       id="path-effect1198"
       is_visible="true"
       lpeversion="1"
       offset_points="0,0.274225"
       sort_points="true"
       interpolator_type="CubicBezierJohan"
       interpolator_beta="0.2"
       start_linecap_type="zerowidth"
       linejoin_type="extrp_arc"
       miter_limit="4"
       scale_width="1"
       end_linecap_type="zerowidth" />
    <inkscape:path-effect
       effect="spiro"
       id="path-effect1196"
       is_visible="true"
       lpeversion="1" />
    <inkscape:path-effect
       effect="simplify"
       id="path-effect1194"
       is_visible="true"
       lpeversion="1"
       steps="1"
       threshold="0.00416667"
       smooth_angles="360"
       helper_size="0"
       simplify_individual_paths="false"
       simplify_just_coalesce="false" />
    <inkscape:path-effect
       effect="powerstroke"
       id="path-effect1088"
       is_visible="true"
       lpeversion="1"
       offset_points="0.064987814,0.27422514"
       sort_points="true"
       interpolator_type="CubicBezierJohan"
       interpolator_beta="0.2"
       start_linecap_type="zerowidth"
       linejoin_type="extrp_arc"
       miter_limit="4"
       scale_width="1"
       end_linecap_type="zerowidth" />
    <inkscape:path-effect
       effect="spiro"
       id="path-effect1086"
       is_visible="true"
       lpeversion="1" />
    <inkscape:path-effect
       effect="simplify"
       id="path-effect1084"
       is_visible="true"
       lpeversion="1"
       steps="1"
       threshold="0.00961538"
       smooth_angles="360"
       helper_size="0"
       simplify_individual_paths="false"
       simplify_just_coalesce="false" />
    <inkscape:path-effect
       effect="powerstroke"
       id="path-effect1080"
       is_visible="true"
       lpeversion="1"
       offset_points="0,0.305577"
       sort_points="true"
       interpolator_type="CubicBezierJohan"
       interpolator_beta="0.2"
       start_linecap_type="zerowidth"
       linejoin_type="extrp_arc"
       miter_limit="4"
       scale_width="1"
       end_linecap_type="zerowidth" />
    <inkscape:path-effect
       effect="simplify"
       id="path-effect1076"
       is_visible="true"
       lpeversion="1"
       steps="1"
       threshold="0.00645161"
       smooth_angles="360"
       helper_size="0"
       simplify_individual_paths="false"
       simplify_just_coalesce="false" />
    <inkscape:path-effect
       effect="powerstroke"
       id="path-effect1072"
       is_visible="true"
       lpeversion="1"
       offset_points="0,0.305577"
       sort_points="true"
       interpolator_type="CubicBezierJohan"
       interpolator_beta="0.2"
       start_linecap_type="zerowidth"
       linejoin_type="extrp_arc"
       miter_limit="4"
       scale_width="1"
       end_linecap_type="zerowidth" />
    <inkscape:path-effect
       effect="spiro"
       id="path-effect1070"
       is_visible="true"
       lpeversion="1" />
    <inkscape:path-effect
       effect="simplify"
       id="path-effect1068"
       is_visible="true"
       lpeversion="1"
       steps="1"
       threshold="0.00645161"
       smooth_angles="360"
       helper_size="0"
       simplify_individual_paths="false"
       simplify_just_coalesce="false" />
    <inkscape:path-effect
       effect="powerstroke"
       id="path-effect1048"
       is_visible="true"
       lpeversion="1"
       offset_points="0.44127434,-0.89273428"
       sort_points="true"
       interpolator_type="CubicBezierJohan"
       interpolator_beta="0.2"
       start_linecap_type="zerowidth"
       linejoin_type="extrp_arc"
       miter_limit="4"
       scale_width="1"
       end_linecap_type="zerowidth" />
    <inkscape:path-effect
       effect="powerstroke"
       id="path-effect1046"
       is_visible="true"
       lpeversion="1"
       offset_points="1,0.72943166"
       sort_points="true"
       interpolator_type="CubicBezierJohan"
       interpolator_beta="0.2"
       start_linecap_type="zerowidth"
       linejoin_type="extrp_arc"
       miter_limit="4"
       scale_width="1"
       end_linecap_type="zerowidth" />
    <inkscape:path-effect
       effect="spiro"
       id="path-effect1044"
       is_visible="true"
       lpeversion="1" />
    <inkscape:path-effect
       effect="simplify"
       id="path-effect1042"
       is_visible="true"
       lpeversion="1"
       steps="1"
       threshold="0.00645161"
       smooth_angles="360"
       helper_size="0"
       simplify_individual_paths="false"
       simplify_just_coalesce="false" />
    <inkscape:path-effect
       effect="powerstroke"
       id="path-effect1010"
       is_visible="true"
       lpeversion="1"
       offset_points="0.85294456,0.38211433"
       sort_points="true"
       interpolator_type="CubicBezierJohan"
       interpolator_beta="0.2"
       start_linecap_type="zerowidth"
       linejoin_type="extrp_arc"
       miter_limit="4"
       scale_width="1"
       end_linecap_type="zerowidth" />
    <inkscape:path-effect
       effect="spiro"
       id="path-effect1008"
       is_visible="true"
       lpeversion="1" />
    <inkscape:path-effect
       effect="simplify"
       id="path-effect1006"
       is_visible="true"
       lpeversion="1"
       steps="1"
       threshold="0.00645161"
       smooth_angles="360"
       helper_size="0"
       simplify_individual_paths="false"
       simplify_just_coalesce="false" />
    <inkscape:path-effect
       effect="powerstroke"
       id="path-effect1000"
       is_visible="true"
       lpeversion="1"
       offset_points="1.2674829,1.0690424"
       sort_points="true"
       interpolator_type="CubicBezierJohan"
       interpolator_beta="0.2"
       start_linecap_type="zerowidth"
       linejoin_type="extrp_arc"
       miter_limit="4"
       scale_width="1"
       end_linecap_type="zerowidth" />
    <inkscape:path-effect
       effect="spiro"
       id="path-effect998"
       is_visible="true"
       lpeversion="1" />
    <inkscape:path-effect
       effect="simplify"
       id="path-effect996"
       is_visible="true"
       lpeversion="1"
       steps="1"
       threshold="0.00645161"
       smooth_angles="360"
       helper_size="0"
       simplify_individual_paths="false"
       simplify_just_coalesce="false" />
    <inkscape:path-effect
       effect="powerstroke"
       id="path-effect992"
       is_visible="true"
       lpeversion="1"
       offset_points="0.30417657,0.85870782"
       sort_points="true"
       interpolator_type="CubicBezierJohan"
       interpolator_beta="0.2"
       start_linecap_type="zerowidth"
       linejoin_type="extrp_arc"
       miter_limit="4"
       scale_width="1"
       end_linecap_type="zerowidth" />
    <inkscape:path-effect
       effect="spiro"
       id="path-effect990"
       is_visible="true"
       lpeversion="1" />
    <inkscape:path-effect
       effect="simplify"
       id="path-effect988"
       is_visible="true"
       lpeversion="1"
       steps="1"
       threshold="0.00645161"
       smooth_angles="360"
       helper_size="0"
       simplify_individual_paths="false"
       simplify_just_coalesce="false" />
    <inkscape:path-effect
       effect="powerstroke"
       id="path-effect984"
       is_visible="true"
       lpeversion="1"
       offset_points="0,0.881171"
       sort_points="true"
       interpolator_type="CubicBezierJohan"
       interpolator_beta="0.2"
       start_linecap_type="zerowidth"
       linejoin_type="extrp_arc"
       miter_limit="4"
       scale_width="1"
       end_linecap_type="zerowidth" />
    <inkscape:path-effect
       effect="spiro"
       id="path-effect982"
       is_visible="true"
       lpeversion="1" />
    <inkscape:path-effect
       effect="powerstroke"
       id="path-effect938"
       is_visible="true"
       lpeversion="1"
       offset_points="0.44127434,-1.0077208"
       sort_points="true"
       interpolator_type="CubicBezierJohan"
       interpolator_beta="0.2"
       start_linecap_type="zerowidth"
       linejoin_type="extrp_arc"
       miter_limit="4"
       scale_width="1"
       end_linecap_type="zerowidth" />
    <inkscape:path-effect
       effect="bend_path"
       id="path-effect934"
       is_visible="true"
       lpeversion="1"
       bendpath="m 70.973789,114.24123 c 11.924831,-6.42428 9.677638,6.00773 19.103461,4.17493"
       prop_scale="1"
       scale_y_rel="false"
       vertical="false"
       hide_knot="false" />
    <inkscape:path-effect
       effect="powerstroke"
       id="path-effect924"
       is_visible="true"
       lpeversion="1"
       offset_points="0,0.1322915"
       sort_points="true"
       interpolator_type="CubicBezierJohan"
       interpolator_beta="0.2"
       start_linecap_type="zerowidth"
       linejoin_type="extrp_arc"
       miter_limit="4"
       scale_width="1"
       end_linecap_type="zerowidth" />
    <inkscape:path-effect
       effect="powerstroke"
       id="path-effect920"
       is_visible="true"
       lpeversion="1"
       offset_points="1,0.1322915"
       sort_points="true"
       interpolator_type="CubicBezierJohan"
       interpolator_beta="0.2"
       start_linecap_type="zerowidth"
       linejoin_type="extrp_arc"
       miter_limit="4"
       scale_width="1"
       end_linecap_type="zerowidth" />
    <inkscape:path-effect
       effect="powerstroke"
       id="path-effect916"
       is_visible="true"
       lpeversion="1"
       offset_points="1,0.1322915"
       sort_points="true"
       interpolator_type="CubicBezierJohan"
       interpolator_beta="0.2"
       start_linecap_type="zerowidth"
       linejoin_type="extrp_arc"
       miter_limit="4"
       scale_width="1"
       end_linecap_type="zerowidth" />
    <inkscape:path-effect
       effect="skeletal"
       id="path-effect912"
       is_visible="true"
       lpeversion="1"
       pattern="M 0,5 C 0,2.24 2.24,0 5,0 7.76,0 10,2.24 10,5 10,7.76 7.76,10 5,10 2.24,10 0,7.76 0,5 Z"
       copytype="single_stretched"
       prop_scale="1"
       scale_y_rel="false"
       spacing="0"
       normal_offset="0"
       tang_offset="0"
       prop_units="false"
       vertical_pattern="false"
       hide_knot="false"
       fuse_tolerance="0" />
    <inkscape:path-effect
       effect="skeletal"
       id="path-effect908"
       is_visible="true"
       lpeversion="1"
       pattern="M 0,5 C 0,2.24 2.24,0 5,0 7.76,0 10,2.24 10,5 10,7.76 7.76,10 5,10 2.24,10 0,7.76 0,5 Z"
       copytype="single_stretched"
       prop_scale="1"
       scale_y_rel="false"
       spacing="0"
       normal_offset="0"
       tang_offset="0"
       prop_units="false"
       vertical_pattern="false"
       hide_knot="false"
       fuse_tolerance="0" />
  </defs>
  <sodipodi:namedview
     id="base"
     pagecolor="#ffffff"
     bordercolor="#666666"
     borderopacity="1.0"
     inkscape:pageopacity="0.0"
     inkscape:pageshadow="2"
     inkscape:zoom="1.6080787"
     inkscape:cx="129.93034"
     inkscape:cy="175.67548"
     inkscape:document-units="mm"
     inkscape:current-layer="layer8"
     inkscape:document-rotation="0"
     showgrid="false"
     fit-margin-top="0"
     fit-margin-left="0"
     fit-margin-right="0"
     fit-margin-bottom="0"
     inkscape:window-width="1280"
     inkscape:window-height="755"
     inkscape:window-x="0"
     inkscape:window-y="23"
     inkscape:window-maximized="1"
     showguides="true" />
  <metadata
     id="metadata5">
    <rdf:RDF>
      <cc:Work
         rdf:about="">
        <dc:format>image/svg+xml</dc:format>
        <dc:type
           rdf:resource="http://purl.org/dc/dcmitype/StillImage" />
        <dc:title></dc:title>
      </cc:Work>
    </rdf:RDF>
  </metadata>
  <g
     inkscape:groupmode="layer"
     id="layer2"
     inkscape:label="Outline"
     style="display:inline"
     transform="translate(-71.16049,-48.31847)">
    <g
       inkscape:groupmode="layer"
       id="g1299"
       inkscape:label="Back Ear"
       style="display:inline;mix-blend-mode:normal">
      <path
         style="fill:#95ece3;fill-opacity:1;stroke:none;stroke-width:0.2931px;stroke-linecap:butt;stroke-linejoin:miter;stroke-opacity:1"
         d="m 83.372061,82.94859 c 0,0 -2.61919,-4.496308 -5.14084,-4.014939 -2.52165,0.481371 -5.37952,2.613149 -5.54763,4.744931 -0.16811,2.131777 -0.89659,6.395335 0.84055,8.252048 1.73714,1.856713 4.67629,3.350932 9.59489,1.29725 4.91861,-2.053686 0.25303,-10.27929 0.25303,-10.27929 z"
         id="path1325" />
      <path
         style="fill:none;stroke:#732322;stroke-width:0.958231;stroke-linecap:round;stroke-linejoin:round;stroke-miterlimit:4;stroke-dasharray:none;stroke-opacity:1"
         d="m 75.922021,85.623407 c 0.53915,-0.167985 2.68205,-1.65884 4.38509,2.067859"
         id="path1295"
         sodipodi:nodetypes="cc" />
      <path
         style="fill:#732322;fill-opacity:1;fill-rule:nonzero;stroke:#732322;stroke-width:0.736675;stroke-linecap:round;stroke-linejoin:round;stroke-miterlimit:4;stroke-dasharray:none;stroke-opacity:1"
         d="m 76.761551,87.406798 c 0.374537,-0.215448 1.753802,-0.417359 2.128339,-0.632807 0.04289,-0.02467 -0.08411,-0.543115 -0.04122,-0.567785 -0.04289,0.02467 -0.427204,-0.345752 -0.470091,-0.321081 -0.374537,0.215448 -1.242492,1.306225 -1.617029,1.521673 z"
         id="path1297"
         inkscape:path-effect="#path-effect1311;#path-effect1313;#path-effect1315"
         inkscape:original-d="m 76.761551,87.406798 2.08712,-1.200592"
         sodipodi:nodetypes="cc" />
      <path
         style="display:inline;mix-blend-mode:normal;fill:#732322;fill-opacity:1;fill-rule:nonzero;stroke:#732322;stroke-width:0.886224;stroke-linecap:round;stroke-linejoin:round;stroke-miterlimit:4;stroke-dasharray:none;stroke-opacity:1"
         d="m 83.119031,93.22788 c -1.541792,0.639501 -3.505509,1.330251 -5.447982,1.268147 -0.732049,-0.0234 -1.426128,-0.153122 -2.073236,-0.4028 -0.627545,-0.24213 -1.187673,-0.588291 -1.67795,-1.024688 -0.503189,-0.447892 -0.912928,-0.973173 -1.239367,-1.536064 -0.360356,-0.621375 -0.609718,-1.2719 -0.776466,-1.889578 -0.232909,-0.862759 -0.302365,-1.648451 -0.300386,-2.216335 0.0019,-0.535296 0.05841,-1.217769 0.219981,-1.991719 0.249816,-1.19663 0.745664,-2.570518 1.573696,-3.773365 0.36203,-0.525907 0.779737,-1.006248 1.249888,-1.407378 0.46192,-0.394106 0.965521,-0.704026 1.502371,-0.906715 0.547027,-0.20653 1.109765,-0.294696 1.678448,-0.263963 0.601581,0.03251 1.190709,0.19679 1.763762,0.468824 0.646102,0.306711 1.257967,0.743689 1.8332,1.257892 0.750183,0.670593 1.405217,1.443087 1.947071,2.138453 -0.54184,-0.695347 -1.228517,-1.444583 -2.014296,-2.058043 -0.604475,-0.471914 -1.236654,-0.839394 -1.879835,-1.060078 -0.569494,-0.195401 -1.119923,-0.26615 -1.641869,-0.216548 -0.490578,0.04662 -0.944658,0.198392 -1.360722,0.437329 -0.409006,0.234885 -0.779947,0.553245 -1.111277,0.935317 -0.338073,0.389849 -0.631131,0.841671 -0.879165,1.329459 -0.570325,1.121608 -0.863433,2.346927 -0.994393,3.401014 -0.08428,0.6784 -0.09982,1.261791 -0.101404,1.715741 -0.0017,0.481645 -0.0013,1.143117 0.100031,1.878656 0.07254,0.526649 0.196192,1.085316 0.403381,1.632353 0.187143,0.494112 0.440402,0.973114 0.779446,1.405093 0.330109,0.420595 0.738526,0.792671 1.238901,1.089771 0.5183,0.307744 1.119229,0.52537 1.800713,0.639029 1.830639,0.305317 3.854203,-0.205549 5.407459,-0.849804 z"
         id="path936-4"
         inkscape:path-effect="#path-effect1048"
         inkscape:original-d="m 83.119031,93.22788 c -17.39369,7.21451 -10.58923,-24.193249 0.25303,-10.279289"
         sodipodi:nodetypes="cc" />
    </g>
    <g
       inkscape:groupmode="layer"
       id="layer11"
       inkscape:label="Head"
       style="display:inline">
      <path
         style="display:inline;fill:#95ece3;fill-opacity:1;stroke:#732322;stroke-width:2.465;stroke-linecap:round;stroke-linejoin:round;stroke-miterlimit:4;stroke-dasharray:none;stroke-opacity:1"
         d="m 129.25063,111.02395 -27.0529,8.62125 c 0,0 -19.620789,-0.89185 -21.999069,-15.4588 -2.37827,-14.566968 1.78371,-38.647025 16.05338,-48.160134 14.269659,-9.513107 37.457859,8.621255 37.457859,8.621255 0,0 2.67556,26.458335 -4.45927,46.376429 z"
         id="path856" />
      <path
         style="display:inline;fill:#f9fae7;fill-opacity:1;stroke:none;stroke-width:0.264999;stroke-linecap:butt;stroke-linejoin:miter;stroke-miterlimit:4;stroke-dasharray:none;stroke-opacity:1"
         d="m 125.46415,111.84988 c 0,0 4.58634,-12.631876 4.93609,-19.271372 0.70058,-13.299371 0.34808,-28.79444 0.34808,-28.79444 l 2.96158,0.863453 0.51956,22.507323 -4.97883,23.869106 z"
         id="path1348"
         sodipodi:nodetypes="csccccc" />
      <path
         style="display:inline;fill:#25d0be;fill-opacity:1;stroke:none;stroke-width:0.264583px;stroke-linecap:butt;stroke-linejoin:miter;stroke-opacity:1"
         d="m 91.56204,113.47798 c -3.382944,-1.51323 -5.190717,-4.07644 -7.318678,-8.20622 -1.521319,-3.60167 -2.964453,-13.193125 -2.964453,-13.193125 l -1.998163,2.146816 c 0,0 3.018373,15.880489 7.341284,20.874739 2.537407,2.93147 10.680675,3.87397 10.680675,3.87397 l 2.518548,-3.59103 c 0,0 -5.357386,-0.60713 -8.259213,-1.90515 z"
         id="path1391"
         sodipodi:nodetypes="scccsccs" />
      <path
         style="display:inline;fill:none;fill-opacity:1;stroke:#732322;stroke-width:2.465;stroke-linecap:round;stroke-linejoin:round;stroke-miterlimit:4;stroke-dasharray:none;stroke-opacity:1"
         d="m 129.25063,111.02395 -27.0529,8.62125 c 0,0 -19.620789,-0.89185 -21.999069,-15.4588 -2.37827,-14.566968 1.78371,-38.647025 16.05338,-48.160135 14.269659,-9.513106 37.457859,8.621256 37.457859,8.621256 0,0 2.67556,26.458331 -4.45927,46.376429 z"
         id="path856-5" />
    </g>
    <g
       inkscape:groupmode="layer"
       id="layer10"
       inkscape:label="Facial Lines"
       style="display:inline">
      <path
         style="fill:none;stroke:#25d0be;stroke-width:1.265;stroke-linecap:round;stroke-linejoin:round;stroke-miterlimit:4;stroke-dasharray:none;stroke-opacity:1"
         d="m 117.87292,93.145132 c 0,0 -0.60252,5.154906 -4.88712,4.820171"
         id="path1134" />
      <path
         style="fill:none;stroke:#25d0be;stroke-width:1.065;stroke-linecap:round;stroke-linejoin:round;stroke-miterlimit:4;stroke-dasharray:none;stroke-opacity:1"
         d="m 119.9622,81.037043 c 0,0 -9.55507,6.743056 -13.90662,-1.089725"
         id="path1144"
         sodipodi:nodetypes="cc" />
      <path
         style="fill:none;stroke:#25d0be;stroke-width:1.065;stroke-linecap:round;stroke-linejoin:round;stroke-miterlimit:4;stroke-dasharray:none;stroke-opacity:1"
         d="m 83.670396,83.553934 c 0,0 6.010439,2.091291 11.847061,-0.561755"
         id="path1144-2"
         sodipodi:nodetypes="cc" />
      <path
         style="fill:none;stroke:#25d0be;stroke-width:1.265;stroke-linecap:round;stroke-linejoin:round;stroke-miterlimit:4;stroke-dasharray:none;stroke-opacity:1"
         d="m 84.473921,91.562768 c 0,0 0.93099,5.105814 5.18541,4.497721"
         id="path1134-1" />
      <path
         id="path1020"
         style="fill:#eaa6a2;fill-opacity:1;stroke:#732322;stroke-width:0.965;stroke-linecap:butt;stroke-linejoin:miter;stroke-miterlimit:4;stroke-dasharray:none;stroke-opacity:1"
         d="m 114.72014,64.050446 c -0.99476,-1.198862 -2.51482,-1.972452 -3.18444,-3.422408 -0.71849,-1.058866 -1.85909,-0.167374 -2.45234,0.511338 -0.84364,0.625882 -1.7657,1.259366 -2.17725,2.27049 -0.73277,1.067702 -2.18647,0.744464 -3.2489,1.085613 -0.81512,0.521318 -1.40281,2.021653 -0.25168,2.507873 0.86615,0.510963 1.89933,0.742864 2.89396,0.642985 1.37267,0.144873 2.43629,1.138033 3.69658,1.609603 0.99339,0.486113 2.00786,1.144686 2.45655,2.201997 0.73967,0.624411 2.23027,1.667701 3.0988,0.896664 0.79883,-0.756922 1.62923,-1.50622 2.75174,-1.574233 1.12445,-0.163103 2.26741,0.06796 3.30948,0.471428 1.03225,-0.0013 1.2077,-1.248624 1.24729,-2.050275 0.0134,-0.85582 -0.033,-1.831375 0.70303,-2.289935 0.74356,-0.886272 0.75853,-2.123243 0.77683,-3.221922 -0.0373,-1.111754 -0.96421,-1.915064 -1.69153,-2.655462 -0.56627,-0.736304 -1.54299,-1.355025 -2.42128,-0.669588 -1.03772,0.414295 -0.94031,1.872095 -1.93248,2.258595 -1.12476,-0.63724 -1.93078,0.489606 -2.59514,1.256326 -0.26715,0.253123 -0.6437,0.245134 -0.97922,0.170911 z"
         sodipodi:nodetypes="cccccccccccccccccccc" />
      <path
         id="path1044-8"
         style="display:inline;fill:#eaa6a2;fill-opacity:1;stroke:#732322;stroke-width:0.865;stroke-linecap:butt;stroke-linejoin:miter;stroke-miterlimit:4;stroke-dasharray:none;stroke-opacity:1"
         d="m 98.965722,67.651613 c -0.278091,0.146009 -0.595905,0.362344 -0.639265,0.698549 -0.03923,0.304144 0.238785,0.535995 0.471413,0.687632 0.154924,0.100986 0.305996,0.274904 0.343335,0.432952 0.07205,0.30498 -0.186651,0.587302 -0.172423,0.903861 0.01972,0.438736 0.418348,0.816351 0.858598,0.784333 0.46031,-0.03348 0.931,-0.146856 1.39103,-0.0093 0.29575,0.08843 0.6499,0.307795 0.91422,0.147226 0.30884,-0.187612 0.0259,-0.685777 0.12909,-1.021007 0.089,-0.289132 0.20229,-0.599197 0.11031,-0.901946 -0.0729,-0.239891 -0.0169,-0.518538 -0.12753,-0.730815 -0.12518,-0.240266 -0.46367,-0.186336 -0.70148,-0.245123 -0.37778,-0.09339 -0.66505,-0.361907 -0.97091,-0.586947 -0.68452,-0.503649 -1.06638,-0.442943 -1.606388,-0.159415 z"
         sodipodi:nodetypes="ssssssssssssss" />
      <path
         id="path1046-7"
         style="display:inline;fill:#eaa6a2;fill-opacity:1;stroke:#732322;stroke-width:0.724001;stroke-linecap:butt;stroke-linejoin:miter;stroke-miterlimit:4;stroke-dasharray:none;stroke-opacity:1"
         d="m 104.57204,72.0967 c 0.24312,0.49842 -0.89309,0.942156 -0.18196,1.323031 0.35846,0.274209 0.86432,0.54395 1.29846,0.379191 0.39869,-0.327864 0.68061,-0.801443 0.67154,-1.338437 0.24309,-0.499956 -0.1079,-0.827928 -0.44558,-1.165267 -0.34003,-0.390818 -0.8192,0.07843 -1.21964,0.11036 -0.43949,0.02119 -0.24637,0.444166 -0.12282,0.691122 z" />
      <path
         style="display:inline;fill:#e6938e;fill-opacity:1;stroke:none;stroke-width:0.264583px;stroke-linecap:butt;stroke-linejoin:miter;stroke-opacity:1"
         d="m 120.22698,60.364613 c 0,0 1.85759,1.650808 2.37427,2.905608 0.51668,1.2548 0.14762,2.066728 -0.6643,3.173903 -0.81193,1.107176 -1.20375,2.73779 -0.51668,4.354891 0.19237,0.452781 1.22376,-0.452736 1.22376,-0.452736 l 0.34798,-2.287774 c 0,0 1.79317,-3.20467 1.45453,-4.862096 -0.18765,-0.918454 -1.79828,-2.162207 -1.79828,-2.162207 z"
         id="path1334"
         sodipodi:nodetypes="csssccscc" />
      <path
         style="fill:#d65048;fill-opacity:1;fill-rule:nonzero;stroke:none;stroke-width:0.264583px;stroke-linecap:butt;stroke-linejoin:miter;stroke-opacity:1"
         d="m 119.41249,71.010696 c -0.009,-0.04194 -0.0136,-0.116708 -0.0346,-0.219233 -0.0163,-0.07954 -0.0405,-0.168631 -0.0762,-0.268398 -0.0743,-0.207405 -0.18731,-0.423509 -0.27244,-0.531276 -0.0173,-0.02184 -0.036,-0.04503 -0.0562,-0.06953 -0.23558,-0.284976 -0.63193,-0.694579 -1.19093,-1.192054 -0.44619,-0.397067 -0.91286,-0.775937 -1.32772,-1.087349 -0.22456,-0.168566 -0.41778,-0.305314 -0.57916,-0.414212 -0.21695,-0.146404 -0.35538,-0.228534 -0.44632,-0.283681 0.0881,0.05346 0.22417,0.151672 0.42308,0.314873 0.14887,0.12214 0.32937,0.277825 0.53532,0.464337 0.38227,0.346205 0.8113,0.761535 1.21858,1.188537 0.52656,0.552064 0.84922,0.9458 1.08205,1.240202 0.0118,0.0149 0.041,0.05191 0.0528,0.06682 0.0776,0.09829 0.25122,0.25929 0.3914,0.406393 0.0681,0.07148 0.12673,0.137308 0.17361,0.197949 0.0617,0.07982 0.0972,0.143547 0.10676,0.186623 z"
         id="path1313"
         inkscape:path-effect="#path-effect1316"
         inkscape:original-d="m 119.41249,71.010696 c -0.2206,-0.992707 -3.03417,-3.490014 -3.98357,-4.065731"
         sodipodi:nodetypes="cc" />
      <path
         style="fill:#d65048;fill-opacity:1;fill-rule:nonzero;stroke:none;stroke-width:0.264583px;stroke-linecap:butt;stroke-linejoin:miter;stroke-opacity:1"
         d="m 121.18531,71.286612 c -0.0462,-0.07379 -0.003,-0.44955 -0.0627,-0.53379 -0.0639,-0.08958 -0.14336,-0.194909 -0.23984,-0.316052 -0.174,-0.218471 -0.39864,-0.482196 -0.67874,-0.789085 -0.45504,-0.498548 -1.01832,-1.068853 -1.63418,-1.643809 -0.59621,-0.556607 -1.17002,-1.050646 -1.66783,-1.442615 -0.27999,-0.220455 -0.51924,-0.395578 -0.72142,-0.533741 -0.26749,-0.182782 -0.44969,-0.287024 -0.57469,-0.354829 0.12368,0.06709 0.30126,0.185449 0.55166,0.385934 0.18962,0.151816 0.41443,0.345507 0.67443,0.584851 0.46164,0.424968 0.99746,0.960255 1.54682,1.551095 0.57316,0.61643 1.08284,1.208885 1.50177,1.730329 0.25704,0.319947 0.45801,0.585642 0.61873,0.805042 0.0886,0.120976 0.16161,0.223213 0.22274,0.308837 0.0573,0.08023 0.4171,0.174045 0.46329,0.247833 z"
         id="path1318"
         inkscape:path-effect="#path-effect1320"
         inkscape:original-d="m 121.18531,71.286612 c -1.0694,-1.708388 -4.30016,-4.920008 -5.57944,-5.613921"
         sodipodi:nodetypes="cc" />
      <path
         style="fill:#d65048;fill-opacity:1;fill-rule:nonzero;stroke:none;stroke-width:0.264583px;stroke-linecap:butt;stroke-linejoin:miter;stroke-opacity:1"
         d="m 122.36696,70.93751 c -0.04,-0.06494 0.044,-0.395209 5.2e-4,-0.461861 -0.47459,-0.727086 -1.43734,-1.952309 -2.81519,-3.21127 -0.61786,-0.564539 -1.2332,-1.056405 -1.82224,-1.467689 -0.78926,-0.551075 -1.39326,-0.862343 -1.80641,-1.061638 0.40653,0.196099 1.00415,0.552801 1.7438,1.145314 0.55595,0.445354 1.13132,0.975096 1.70132,1.571743 1.29673,1.357331 2.1074,2.564859 2.58364,3.294477 0.0421,0.06452 0.37459,0.125989 0.41456,0.190924 z"
         id="path1322"
         inkscape:path-effect="#path-effect1324"
         inkscape:original-d="M 122.36696,70.93751 C 120.896,68.547701 118.2352,65.850095 115.92364,64.735052"
         sodipodi:nodetypes="cc" />
      <path
         style="fill:#d65048;fill-opacity:1;fill-rule:nonzero;stroke:none;stroke-width:0.264583px;stroke-linecap:butt;stroke-linejoin:miter;stroke-opacity:1"
         d="m 122.66562,69.351481 c -0.0285,-0.04569 0.0931,-0.315761 0.0634,-0.361413 -0.3768,-0.579976 -1.06352,-1.444781 -2.01878,-2.287835 -1.06297,-0.938115 -2.04281,-1.499387 -2.73848,-1.904 0.67017,0.389781 1.63263,1.096039 2.55669,2.090688 0.86648,0.932685 1.40795,1.790348 1.78519,2.371012 0.0287,0.04416 0.32343,0.04586 0.35197,0.09155 z"
         id="path1326"
         inkscape:path-effect="#path-effect1328"
         inkscape:original-d="m 122.66562,69.351481 c -1.18811,-1.902081 -2.70398,-3.395914 -4.69385,-4.553248"
         sodipodi:nodetypes="cc" />
      <path
         style="fill:#d65048;fill-opacity:1;fill-rule:nonzero;stroke:none;stroke-width:0.264583px;stroke-linecap:butt;stroke-linejoin:miter;stroke-opacity:1"
         d="m 123.03606,68.014452 c -0.0557,-0.101038 -0.0281,-0.51151 -0.0887,-0.605216 -0.0868,-0.134102 -0.21464,-0.306732 -0.37939,-0.493473 -0.22961,-0.260247 -0.50671,-0.521715 -0.86083,-0.795806 -0.331,-0.256199 -0.69825,-0.499799 -1.10247,-0.75051 -0.43101,-0.26733 -1.01019,-0.600484 -1.4412,-0.867814 0.36438,0.225285 0.90073,0.587943 1.37846,0.958153 0.37485,0.290491 0.70057,0.574197 0.98434,0.863904 0.30214,0.308463 0.52426,0.590566 0.70906,0.854828 0.13279,0.189903 0.23845,0.359571 0.31946,0.484755 0.0567,0.08762 0.42559,0.250141 0.48129,0.351179 z"
         id="path1330"
         inkscape:path-effect="#path-effect1332"
         inkscape:original-d="m 123.03606,68.014452 c -0.79355,-1.439472 -1.70058,-2.16993 -3.87261,-3.512819"
         sodipodi:nodetypes="cc" />
    </g>
    <g
       inkscape:groupmode="layer"
       id="layer16"
       inkscape:label="Scabs "
       style="display:inline">
      <path
         id="path1020-1"
         style="display:inline;fill:none;fill-opacity:1;stroke:#732322;stroke-width:0.964999;stroke-linecap:butt;stroke-linejoin:miter;stroke-miterlimit:4;stroke-dasharray:none;stroke-opacity:1"
         d="m 114.72014,64.050446 c -0.99476,-1.198862 -2.51482,-1.972452 -3.18444,-3.422408 -0.71849,-1.058866 -1.85909,-0.167374 -2.45234,0.511338 -0.84364,0.625882 -1.7657,1.259366 -2.17725,2.27049 -0.73277,1.067702 -2.18647,0.744464 -3.2489,1.085613 -0.81512,0.521318 -1.40281,2.021653 -0.25168,2.507873 0.86615,0.510963 1.89933,0.742864 2.89396,0.642985 1.37267,0.144873 2.43629,1.138033 3.69658,1.609603 0.99339,0.486113 2.00786,1.144686 2.45655,2.201997 0.73967,0.624412 2.23027,1.667701 3.0988,0.896664 0.79883,-0.756921 1.62923,-1.50622 2.75174,-1.574233 1.12445,-0.163103 2.26741,0.06796 3.30948,0.471428 1.03225,-0.0013 1.2077,-1.248623 1.24729,-2.050275 0.0134,-0.85582 -0.033,-1.831375 0.70303,-2.289935 0.74356,-0.886272 0.75853,-2.123243 0.77683,-3.221922 -0.0373,-1.111754 -0.96421,-1.915064 -1.69153,-2.655462 -0.56627,-0.736304 -1.54299,-1.355025 -2.42128,-0.669588 -1.03772,0.414295 -0.94031,1.872095 -1.93248,2.258595 -1.12476,-0.63724 -1.93078,0.489606 -2.59514,1.256326 -0.26715,0.253123 -0.6437,0.245134 -0.97922,0.170911 z"
         sodipodi:nodetypes="cccccccccccccccccccc" />
      <path
         id="path1044"
         style="display:inline;fill:none;stroke:#732322;stroke-width:0.865;stroke-linecap:butt;stroke-linejoin:miter;stroke-miterlimit:4;stroke-dasharray:none;stroke-opacity:1"
         d="m 98.965722,67.651613 c -0.278091,0.146009 -0.595905,0.362344 -0.639265,0.698549 -0.03923,0.304144 0.238785,0.535995 0.471413,0.687632 0.154924,0.100986 0.305996,0.274904 0.343335,0.432952 0.07205,0.30498 -0.186651,0.587302 -0.172423,0.903861 0.01972,0.438736 0.418348,0.816351 0.858598,0.784333 0.46031,-0.03348 0.931,-0.146856 1.39103,-0.0093 0.29575,0.08843 0.6499,0.307795 0.91422,0.147226 0.30884,-0.187612 0.0259,-0.685777 0.12909,-1.021007 0.089,-0.289132 0.20229,-0.599197 0.11031,-0.901946 -0.0729,-0.239891 -0.0169,-0.518538 -0.12753,-0.730815 -0.12518,-0.240266 -0.46367,-0.186336 -0.70148,-0.245123 -0.37778,-0.09339 -0.66505,-0.361907 -0.97091,-0.586947 -0.68452,-0.503649 -1.06638,-0.442943 -1.606388,-0.159415 z"
         sodipodi:nodetypes="ssssssssssssss" />
      <path
         id="path1046"
         style="display:inline;fill:none;stroke:#732322;stroke-width:0.724001;stroke-linecap:butt;stroke-linejoin:miter;stroke-miterlimit:4;stroke-dasharray:none;stroke-opacity:1"
         d="m 104.57204,72.0967 c 0.24312,0.49842 -0.8931,0.942156 -0.18196,1.323031 0.35846,0.274209 0.86432,0.54395 1.29846,0.379191 0.39869,-0.327864 0.68061,-0.801443 0.67154,-1.338437 0.24309,-0.499956 -0.1079,-0.827928 -0.44558,-1.165267 -0.34003,-0.390818 -0.8192,0.07843 -1.21964,0.11036 -0.43949,0.02119 -0.24637,0.444166 -0.12282,0.691122 z" />
    </g>
    <g
       inkscape:groupmode="layer"
       id="layer14"
       inkscape:label="Eyebrows">
      <path
         style="fill:none;stroke:#722322;stroke-width:1.465;stroke-linecap:round;stroke-linejoin:round;stroke-miterlimit:4;stroke-dasharray:none;stroke-opacity:1"
         d="m 95.821886,82.350643 c 0,0 -5.392112,2.261355 -12.663041,-0.07835"
         id="path1331"
         sodipodi:nodetypes="cc" />
      <path
         style="display:inline;fill:none;stroke:#722322;stroke-width:1.465;stroke-linecap:round;stroke-linejoin:round;stroke-miterlimit:4;stroke-dasharray:none;stroke-opacity:1"
         d="m 105.47292,78.505832 c 0,0 3.60241,8.296574 14.28347,1.83077"
         id="path1331-6"
         sodipodi:nodetypes="cc" />
    </g>
    <g
       inkscape:groupmode="layer"
       id="layer3"
       inkscape:label="Hair"
       style="display:inline">
      <path
         style="display:inline;opacity:1;fill:#48281a;fill-opacity:1;stroke:#4c1717;stroke-width:2.57851;stroke-linecap:butt;stroke-linejoin:miter;stroke-miterlimit:4;stroke-dasharray:none;stroke-opacity:1"
         d="m 124.8079,88.650131 -0.98439,9.893019 c 0,0 -1.6164,7.64266 -2.82913,9.67454 -1.21272,2.03189 -8.34642,7.98335 -9.76127,7.98335 -1.41484,0 -6.26573,0.36943 -6.87209,-2.03189 -0.60637,-2.40132 -0.20212,-3.69433 -2.22333,-3.69433 -2.0212,0 -3.233931,0.92358 -3.031803,4.24848 0.202116,3.32491 -7.793602,2.2433 -10.91451,0.36943 -5.52609,-3.31799 -8.55831,-13.98331 -8.506577,-17.365475 0.134685,-4.444597 -0.704648,2.541555 0.309526,12.393435 0.307876,2.99084 1.661383,6.71915 2.671987,9.12047 1.010604,2.40132 2.493252,4.53327 2.493252,4.53327 l 2.021208,-1.1083 3.436044,3.87905 3.436045,-1.29302 2.425456,4.43321 3.998872,-2.51795 v 0 l 2.06474,3.81097 3.33413,-3.81097 2.4918,2.40375 3.47161,-3.39542 3.63818,1.66245 2.82967,-3.14019 4.04242,0.36944 2.82969,-3.69434 c 0,0 3.42349,-4.55254 4.42414,-7.17944 1.66262,-4.3647 2.4485,-13.79636 2.4485,-13.79636 0,0 -3.96748,-0.656826 -4.93959,-2.101151 -1.86882,-2.776602 -0.17646,-8.252983 0.55229,-9.621551 z"
         id="path939"
         sodipodi:nodetypes="ccsssssacsscccccccccccccccscscc" />
      <path
         style="display:inline;fill:#603522;fill-opacity:1;stroke:none;stroke-width:0.284376px;stroke-linecap:butt;stroke-linejoin:miter;stroke-opacity:1"
         d="m 132.4535,101.15107 c 0,0 -0.12128,5.73324 -1.32848,9.47577 -1.38965,4.3082 -8.90866,14.38276 -8.90866,14.38276 l -3.77211,-1.37767 c 0,0 5.62181,-6.18941 7.59605,-10.3766 2.21501,-4.69781 2.66287,-13.402055 2.66287,-13.402055 z"
         id="path2274-2-2"
         sodipodi:nodetypes="csccscc" />
      <path
         style="display:inline;fill:#603522;fill-opacity:1;stroke:none;stroke-width:0.284376px;stroke-linecap:butt;stroke-linejoin:miter;stroke-opacity:1"
         d="m 118.10225,123.50216 -2.5553,3.20071 -2.67309,-0.9264 2.36283,-2.1968 z"
         id="path2274-2-2-5"
         sodipodi:nodetypes="ccccc" />
      <path
         style="display:inline;fill:#603522;fill-opacity:1;stroke:none;stroke-width:0.284376px;stroke-linecap:butt;stroke-linejoin:miter;stroke-opacity:1"
         d="m 111.84882,124.74937 -2.92503,3.91487 -2.28797,-1.49527 2.41272,-2.04555 z"
         id="path2274-2-2-5-5"
         sodipodi:nodetypes="ccccc" />
      <path
         style="display:inline;fill:#603522;fill-opacity:1;stroke:none;stroke-width:0.284376px;stroke-linecap:butt;stroke-linejoin:miter;stroke-opacity:1"
         d="m 105.98617,125.38567 -2.32952,5.68805 -2.33256,-2.09178 2.6213,-2.98971 z"
         id="path2274-2-2-5-8"
         sodipodi:nodetypes="ccccc" />
      <path
         style="display:inline;opacity:1;fill:none;fill-opacity:1;stroke:#4c1717;stroke-width:2.57851;stroke-linecap:butt;stroke-linejoin:miter;stroke-miterlimit:4;stroke-dasharray:none;stroke-opacity:1"
         d="m 124.80789,88.65013 -0.98439,9.893019 c 0,0 -1.6164,7.642661 -2.82912,9.674541 -1.21273,2.03189 -8.34643,7.98335 -9.76128,7.98335 -1.41484,0 -6.26572,0.36943 -6.87208,-2.03189 -0.60637,-2.40132 -0.20212,-3.69433 -2.22333,-3.69433 -2.0212,0 -3.23393,0.92358 -3.03181,4.24848 0.20212,3.32491 -7.793599,2.2433 -10.914507,0.36943 -5.52609,-3.31799 -8.55831,-13.98332 -8.506577,-17.365476 0.134685,-4.444597 -0.704648,2.541556 0.309526,12.393436 0.307876,2.99084 1.661383,6.71915 2.671987,9.12047 1.010604,2.40132 2.493252,4.53327 2.493252,4.53327 l 2.021208,-1.1083 3.436044,3.87905 3.436045,-1.29302 2.425456,4.43321 3.998876,-2.51795 v 0 l 2.06474,3.81097 3.33413,-3.81097 2.4918,2.40375 3.4716,-3.39542 3.63818,1.66245 2.82967,-3.14019 4.04243,0.36944 2.82968,-3.69434 c 0,0 3.42349,-4.55254 4.42414,-7.17944 1.66263,-4.3647 2.4485,-13.79636 2.4485,-13.79636 0,0 -3.96748,-0.656826 -4.93959,-2.101152 -1.86882,-2.776602 -0.17646,-8.252983 0.55229,-9.621551 z"
         id="path939-1"
         sodipodi:nodetypes="ccsssssacsscccccccccccccccscscc" />
    </g>
    <g
       inkscape:groupmode="layer"
       id="layer7"
       inkscape:label="EyeBags"
       style="display:inline">
      <ellipse
         style="display:inline;fill:#9aa9d7;fill-opacity:1;stroke-width:0.618627;stroke-linecap:round;stroke-linejoin:bevel;stroke-miterlimit:4;stroke-dasharray:none"
         id="path886-6"
         cx="-112.82008"
         cy="89.562645"
         rx="3.5938349"
         ry="5.0663795"
         transform="scale(-1,1)" />
      <path
         id="path886-6-4"
         style="display:inline;fill:#9aa9d7;fill-opacity:1;stroke-width:0.612963;stroke-linecap:round;stroke-linejoin:bevel;stroke-miterlimit:4;stroke-dasharray:none"
         d="m 87.907811,86.934229 c -0.8407,0.50247 -1.382106,0.436335 -1.745305,1.599808 6.6e-5,2.747153 1.480222,4.909556 3.465097,4.909357 1.984674,-1.96e-4 3.257844,-2.226985 3.25791,-4.973857 -0.363077,-1.163344 -0.697611,-1.032687 -1.538118,-1.535308 z"
         sodipodi:nodetypes="ccsccc" />
    </g>
    <g
       inkscape:groupmode="layer"
       id="layer4"
       inkscape:label="Eyes"
       style="display:inline">
      <ellipse
         style="fill:#ffffff;fill-opacity:1;stroke:#732322;stroke-width:1.38734;stroke-linecap:round;stroke-linejoin:round;stroke-miterlimit:4;stroke-dasharray:none;stroke-opacity:1"
         id="path886"
         cx="-112.83743"
         cy="88.503181"
         rx="2.819061"
         ry="3.6134584"
         transform="scale(-1,1)" />
      <path
         id="path886-9"
         style="fill:#ffffff;fill-opacity:1;stroke:#732322;stroke-width:1.347;stroke-linecap:round;stroke-linejoin:round;stroke-miterlimit:4;stroke-dasharray:none;stroke-opacity:1"
         d="m 91.912248,86.857749 c 0.957644,2.148335 -0.360219,4.151174 -2.363681,4.156433 -2.157952,0.0057 -3.314669,-2.066001 -2.363679,-4.156433 z"
         sodipodi:nodetypes="cscc" />
    </g>
    <g
       inkscape:groupmode="layer"
       id="layer5"
       inkscape:label="Front Ear"
       style="display:inline;mix-blend-mode:normal">
      <path
         style="fill:#95ece3;fill-opacity:1;stroke:none;stroke-width:0.330852px;stroke-linecap:butt;stroke-linejoin:miter;stroke-opacity:1"
         d="m 127.44416,89.49189 c 0.72437,-2.161676 2.60328,-4.13514 4.39665,-5.239037 1.79337,-1.103901 5.64937,-0.882322 7.57843,2.281387 2.10694,3.455431 0.1157,10.303053 -1.04131,11.554141 -1.15701,1.251087 -8.27422,2.075459 -10.52521,-0.673423 -1.26055,-1.539374 -1.24882,-5.415576 -0.40856,-7.923068 z"
         id="path1273"
         sodipodi:nodetypes="assssa" />
      <path
         style="fill:#732322;fill-opacity:1;fill-rule:nonzero;stroke:#732322;stroke-width:1.00037;stroke-linecap:round;stroke-linejoin:round;stroke-miterlimit:4;stroke-dasharray:none;stroke-opacity:1"
         d="m 128.6046,98.037075 c 1.72221,0.7405 3.96743,1.341416 5.99973,1.043474 0.75649,-0.110905 1.42295,-0.337304 1.99696,-0.663179 0.55406,-0.314551 1.00493,-0.711931 1.36831,-1.161899 0.37317,-0.46207 0.65107,-0.975721 0.85593,-1.505489 0.22684,-0.586601 0.36176,-1.186466 0.44062,-1.751849 0.11016,-0.789756 0.10974,-1.500128 0.10789,-2.017287 -0.002,-0.487337 -0.0184,-1.114005 -0.1105,-1.842107 -0.14312,-1.131155 -0.4645,-2.445412 -1.09086,-3.637269 -0.27234,-0.518226 -0.59423,-0.995919 -0.96572,-1.404399 -0.364,-0.400247 -0.77224,-0.730348 -1.22357,-0.967845 -0.45927,-0.24168 -0.96241,-0.387058 -1.50792,-0.414412 -0.58051,-0.02911 -1.19318,0.07636 -1.82694,0.321236 -0.71559,0.276493 -1.41818,0.715188 -2.08939,1.26841 -0.87251,0.719138 -1.63436,1.584436 -2.23507,2.383571 0.60092,-0.799405 1.32629,-1.689847 2.15683,-2.472311 0.63675,-0.5999 1.31332,-1.11552 2.02719,-1.488586 0.63296,-0.330785 1.28368,-0.543328 1.94882,-0.610931 0.62895,-0.06392 1.25299,0.0038 1.86155,0.204184 0.59733,0.196681 1.15866,0.514308 1.67413,0.927458 0.52455,0.420427 0.99073,0.930933 1.39473,1.493544 0.92377,1.286459 1.47751,2.773912 1.75634,4.070299 0.18045,0.838999 0.24373,1.580367 0.24581,2.161955 0.002,0.617031 -0.0757,1.471231 -0.33605,2.408056 -0.1864,0.67068 -0.46509,1.376485 -0.86745,2.048389 -0.36453,0.608734 -0.82169,1.174473 -1.3823,1.65302 -0.5462,0.466249 -1.16906,0.831381 -1.86555,1.080828 -0.71807,0.257179 -1.48733,0.38191 -2.29801,0.389698 -2.15201,0.02067 -4.32517,-0.781165 -6.03551,-1.516559 z"
         id="path936"
         inkscape:path-effect="#path-effect938"
         inkscape:original-d="m 128.6046,98.037075 c 19.28408,8.291575 11.74009,-26.34019 -0.28053,-10.349044"
         sodipodi:nodetypes="cc" />
      <path
         style="fill:none;stroke:#732322;stroke-width:1.08166;stroke-linecap:round;stroke-linejoin:round;stroke-miterlimit:4;stroke-dasharray:none;stroke-opacity:1"
         d="m 136.08109,89.841935 c 0,0 -4.33867,-1.563806 -5.42332,4.323463"
         id="path1002" />
      <path
         style="fill:#732322;fill-opacity:1;fill-rule:nonzero;stroke:#732322;stroke-width:0.581467;stroke-linecap:round;stroke-linejoin:round;stroke-miterlimit:4;stroke-dasharray:none;stroke-opacity:1"
         d="m 133.80034,92.261865 c -0.32829,-0.218479 -1.10147,-1.192024 -1.42976,-1.410503 -0.0566,-0.03767 -0.43811,0.167439 -0.49471,0.129771 0.0566,0.03767 0.0147,0.468781 0.0713,0.506448 0.3283,0.218479 1.52488,0.555805 1.85317,0.774284 z"
         id="path1004"
         inkscape:path-effect="#path-effect1006;#path-effect1008;#path-effect1010"
         inkscape:original-d="m 133.80034,92.261865 -1.92447,-1.280732"
         sodipodi:nodetypes="cc" />
    </g>
    <g
       inkscape:groupmode="layer"
       id="layer6"
       inkscape:label="Mouth"
       style="display:inline">
      <path
         style="fill:#732322;fill-opacity:1;stroke:#732322;stroke-width:0.264583px;stroke-linecap:butt;stroke-linejoin:miter;stroke-opacity:1"
         d="m 110.18357,106.54082 c 0,0 2.86406,-0.26329 -0.22463,-5.07593 -2.27715,-3.548136 -6.46471,-4.884449 -11.708299,-3.806997 -5.24359,1.077453 -7.11117,7.254867 -7.11117,7.254867 0,0 -0.57465,2.01124 1.36477,1.50843 1.93941,-0.50281 2.94503,-2.08308 9.266069,-1.50843 6.32105,0.57464 8.41326,1.62806 8.41326,1.62806 z"
         id="path1282"
         sodipodi:nodetypes="csscssc" />
    </g>
    <g
       inkscape:groupmode="layer"
       id="layer8"
       inkscape:label="Tongue"
       style="display:inline">
      <path
         style="fill:#e73544;fill-opacity:1;stroke:none;stroke-width:0.264583px;stroke-linecap:butt;stroke-linejoin:miter;stroke-opacity:1"
         d="m 95.960849,105.00942 c 0,0 1.083185,-3.02399 4.474951,-3.43782 2.24028,-0.27334 4.51914,0.23743 5.90888,1.32165 0.73024,0.56969 1.75782,2.16529 0.21489,2.4745 -0.95688,0.19177 -3.27201,-0.73289 -4.93822,-0.80189 -1.890987,-0.0783 -5.660501,0.44356 -5.660501,0.44356 z"
         id="path1125"
         sodipodi:nodetypes="csssac" />
    </g>
    <g
       inkscape:groupmode="layer"
       id="layer9"
       inkscape:label="Tooth"
       style="display:inline">
      <path
         id="rect1130"
         style="fill:#ffffff;fill-opacity:1;stroke:none;stroke-width:1.83287;stroke-linecap:round;stroke-linejoin:round;stroke-miterlimit:4;stroke-dasharray:none;stroke-opacity:1"
         d="m 95.088514,102.69956 2.44103,-0.64428 c 0.40619,-0.10704 0.6613,-0.49097 0.55815,-0.85677 l -0.90248,-3.200268 c -0.10273,-0.365919 -0.877258,0.08762 -1.23321,0.310672 l -0.85127,0.533428 c -0.781755,0.489869 -1.195672,1.166328 -1.195672,1.166328 l 0.27526,2.22065 c 0.04675,0.37718 0.501974,0.5771 0.908142,0.46996 z"
         sodipodi:nodetypes="sssssscsss" />
    </g>
  </g>
</svg>
