<?xml version="1.0" encoding="UTF-8"?>
<svg width="74.755mm" height="94.918mm" version="1.1" viewBox="0 0 74.755 94.918" xmlns="http://www.w3.org/2000/svg" xmlns:cc="http://creativecommons.org/ns#" xmlns:dc="http://purl.org/dc/elements/1.1/" xmlns:rdf="http://www.w3.org/1999/02/22-rdf-syntax-ns#">
 <metadata>
  <rdf:RDF>
   <cc:Work rdf:about="">
    <dc:format>image/svg+xml</dc:format>
    <dc:type rdf:resource="http://purl.org/dc/dcmitype/StillImage"/>
    <dc:title/>
   </cc:Work>
  </rdf:RDF>
 </metadata>
 <g transform="translate(-65.687 -47.941)">
  <g>
   <g>
    <path d="m86.141 107.85s17.772 14.632 24.357 14.307c8.9516-0.44171 9.3671-7.3328 15.891-18.283 7.5542-12.68 1.7237-41.203-12.667-50.532-8.8895-5.7633-34.686 8.1322-34.686 8.1322s2.1869 27.197 7.1051 46.376z" fill="#d5d1d7"/>
    <path d="m84.783 84.624s-0.69838-4.8215 3.4877-12.652c2.876-5.3801 11.694-8.0726 17.094-10.396 2.6423-1.1368-11.596-2.0836-11.596-2.0836l-5.9524 1.9149-5.6191 9.1129z" fill="#aba3ae"/>
    <path d="m114.43 120.62s2.7659-5.9951 8.2144-16.758c2.9333-5.7945 3.8187-9.7836 4.5288-14.294 1.2061-7.6607-0.27911-22.7-0.27911-22.7l1.6928 27.909-4.6951 14.288c-2.2104 2.8514-5.392 7.6237-9.4618 11.554z" fill="#e2e1e0"/>
    <path d="m89.669 103.74c2.8344 6.1985 13.655 14.798 13.655 14.798l-9.2202-4.5111-7.3867-4.0284-1.4692-12.063-0.86452-7.4609s3.4867 9.3316 5.2855 13.265z" fill="#aba3ae"/>
   </g>
   <path d="m85.874 108.15s20.002 13.932 24.782 13.834c5.9114-0.12125 9.3565-5.8821 16.025-19.82 6.1731-12.903 1.6818-39.311-12.751-48.575-9.8677-6.3339-34.894 7.8876-34.894 7.8876s-0.29728 26.756 6.8376 46.674z" fill="none" stroke="#732322" stroke-linecap="round" stroke-linejoin="round" stroke-width="2.465"/>
  </g>
  <g fill="none" stroke="#9b919f" stroke-linecap="round" stroke-linejoin="round">
   <path d="m92.449 92.487s0.60252 5.1549 4.8871 4.8202" stroke-width="1.265"/>
   <path d="m125.03 90.459s-0.93099 5.1058-5.1854 4.4977" stroke-width="1.265"/>
   <path d="m114.21 77.964s3.3779 5.4909 9.6296 0.84698" stroke-width="1.086"/>
   <path d="m93.133 77.002s2.7457 5.8328 9.4755 1.9136" stroke-width="1.086"/>
  </g>
  <g fill="none" stroke="#722322" stroke-linecap="round" stroke-linejoin="round" stroke-width="1.086">
   <path d="m114.32 77.151s2.9008 5.7572 9.5233 1.6593"/>
   <path d="m93.506 76.067s2.7457 5.8328 9.4755 1.9136"/>
  </g>
  <g>
   <path d="m95.623 53.32c-31.455-5.768-27.636 30.415-26.345 42.049 0.4815 4.3402-6.5396 20.015 0.35887 24.936 0 5.1394 0.28014 15.957-3.2516 21.871 0 0 0.39989-3.7418 0 0 3.931-1.375 10.894-5.5203 16.112-12.421 2.1565-2.8523 6.9911-16.749 5.7514-19.595-0.99422-2.2826-1.5977-9.8363-3.1025-12.125 0 0 2.3697-4.3778 1.963-7.5097-0.81353-6.2638-3.5272-15.935-0.50175-20.763 1.1688-1.8652 5.7431-5.5931 8.6992-6.7183 4.1087-1.564 14.309-0.11315 18.728-0.11315 4.4658 0 3.5542-0.0728 7.8941 3.1822 3.0802 2.3101 5.7939 8.127 6.4803 11.559 2.6836 13.418 1.7126 20.524-0.70412 25.143-1.7477 3.3399-6.2271 12.983-9.6567 16.749 1.3942 2.7393 0.51539 12.63 1.6541 16.971 1.1387 4.3415 2.2594 4.8082 7.6956-8.3322 1.1937-2.8855 0.54468 10.276 3.6673 10.276 0.58524 0 3.0433-9.9038 3.8602-10.789 2.1618-2.3419 2.809-2.0359 4.0172-4.7858 1.0825-2.4636-1.251-12.911-2.3064-9.5475-0.61432 1.9576 2.7565-6.0178 3.2006-9.5648 0.44414-3.547-0.76283-3.9141-2.9261-8.0623-0.52898-8.0864-3.0787-25.758-8.1068-33.244-5.3606-7.9807-14.769-20.419-33.18-9.1657" fill="#fff6d2"/>
   <g fill="#decd87">
    <path d="m101.78 58.979c-0.37685-0.07956-1.6007 0.53577-1.9509 0.49339-1.0494-0.12698-2.2972-0.20448-3.6714-0.11119-1.5301 0.10387-3.1554 0.41548-4.8064 1.0515-2.8039 1.0802-5.4156 3.0005-7.5392 5.7942-2.0812 2.738-3.4458 5.9932-4.1182 9.3241-0.90032 4.4598-0.43456 8.3291 0.20653 10.893-0.64033-2.5613-1.2489-6.4015-0.53885-10.953 0.52955-3.3944 1.7474-6.8031 3.7612-9.7603 2.0578-3.0218 4.7174-5.2342 7.713-6.5476 1.7624-0.77271 3.5237-1.1843 5.1932-1.3469 1.497-0.14583 2.8593-0.08565 3.9941 0.05168 0.379 0.04586 1.38 1.031 1.7568 1.1105z"/>
    <path d="m98.866 56.591c-0.37056-0.10501-1.6334 0.42565-1.98 0.35954-1.0383-0.19807-2.278-0.36027-3.6554-0.36067-1.5336-4.5e-4 -3.1764 0.19988-4.8668 0.72215-2.8709 0.88698-5.6072 2.6251-7.9158 5.2679-2.2626 2.5901-3.8455 5.7449-4.7429 9.0223-1.2016 4.3882-1.0001 8.2803-0.53496 10.882-0.46462-2.5989-0.81055-6.4716 0.20745-10.964 0.75922-3.3505 2.2061-6.6685 4.4164-9.4819 2.2586-2.8748 5.0625-4.9012 8.1406-6.0077 1.8109-0.65104 3.5961-0.94183 5.2728-0.99052 1.5035-0.04366 2.8585 0.10905 3.9814 0.32325 0.375 0.07153 1.3067 1.1224 1.6772 1.2274z"/>
    <path d="m98.866 55.533c0.27064-0.24711 0.61244-1.5676 0.91023-1.7833 0.89286-0.64682 2.0268-1.3126 3.403-1.8243 1.5345-0.57066 3.2884-0.91911 5.242-0.90075 3.3114 0.03112 6.8281 1.1195 10.168 3.2386 3.2738 2.0773 6.007 4.9098 7.9862 7.9722 2.6719 4.1341 3.5327 7.9416 3.7974 10.591-0.26501-2.6522-1.2709-6.4345-4.077-10.401-2.0815-2.9426-4.8882-5.5806-8.1444-7.4339-3.326-1.893-6.6848-2.7228-9.7136-2.6149-1.782 0.06345-3.3461 0.44437-4.6973 0.99428-1.214 0.49407-2.2141 1.107-3.0162 1.6881-0.26765 0.1939-1.5874 0.22788-1.858 0.47499z"/>
    <path d="m81.015 104.51c0.02202 0.14678 0.80048 0.49714 0.81958 0.64957 0.26787 2.1384 0.40424 5.4171-0.17763 9.5927-0.47118 3.3812-1.3735 7.0417-2.7893 10.687-1.4086 3.6263-3.182 6.868-5.1869 9.6041-2.6897 3.6705-5.34 5.821-7.2955 7.1358 1.9525-1.3127 4.5369-3.569 7.0552-7.3047 1.8794-2.7879 3.4949-6.0665 4.7307-9.6892 1.2434-3.6449 1.9753-7.2629 2.3091-10.574 0.41245-4.0918 0.17457-7.2277-0.08142-9.2713-0.01823-0.14556 0.63819-0.68263 0.61618-0.82941z"/>
    <path d="m130.27 97.577c-0.0445 0.29692 0.62809 1.2975 0.58797 1.5913-0.5386 3.944-1.3243 9.7122-1.3113 17.436 0.0138 8.214 0.9678 16.217 1.8771 21.594-0.93684-5.5405-2.2628-13.142-2.7258-21.57-0.42097-7.6636 0.0267-13.78 0.55922-17.679 0.0407-0.29809 0.96824-1.0758 1.0128-1.3727z"/>
    <path d="m101.02 58.428c0.32782-0.20218 0.93721-1.4675 1.2784-1.6387 1.0217-0.51259 2.2836-1.0294 3.7419-1.3978 1.6264-0.41089 3.4231-0.61847 5.343-0.48651 3.2632 0.22428 6.5138 1.4082 9.4714 3.5573 2.8943 2.1031 5.1921 4.9001 6.8371 7.9161 2.2057 4.044 2.9301 7.864 3.1926 10.491-0.26282-2.6302-1.1315-6.4294-3.4854-10.323-1.758-2.9079-4.142-5.5108-7.0258-7.3849-2.9424-1.9122-6.0492-2.8373-9.0532-2.9069-1.7688-0.04097-3.4039 0.21477-4.8791 0.63385-1.3249 0.37639-2.4733 0.87084-3.4181 1.3448-0.31534 0.1582-1.6751-0.0076-2.0029 0.19462z"/>
   </g>
  </g>
  <g fill="none" stroke="#000" stroke-linecap="round" stroke-width="1.365">
   <path d="m104.49 62.281c30.175-14.135 21.784 32.729 27.811 42.416" stroke-linejoin="round"/>
   <path d="m118.05 119.56s2.2139 2.0757 0.86764 8.0354c-1.326 5.8699 1.7901 10.534 2.3091 14 0.0493 0.32925 5.6499-8.2836 5.9143-14.265 0.991 3.1529 1.2458 10.865 4.2873 10.865 1.2873-12.586 6.4355-11.898 7.6351-15.456 1.7406-6.0841-3.8056-7.7575-1.4887-12.8 4.7445-9.4889 0.86465-9.8253-3.0043-17.563" stroke-linejoin="round"/>
   <path d="m136.87 95.806c-1.4669-37.046-20.023-51.518-34.158-46.084-3.0643 1.1781-7.0885 3.5981-7.0885 3.5981s-21.124-6.1654-26.829 16.285c-2.7062 10.649-0.80436 14.051 0.30326 24.02 0.76557 6.8901-3.0738 14.762-1.5579 21.995 1.2251 5.8457 3.9427 3.5277 5.1784 14.649"/>
   <path d="m104.49 62.281c-3.0803-0.5912-7.518-0.48495-11.43 2.2016-15.881 10.905-0.04894 21.16-8.673 35.921-3.1828 5.4477-6.8371 2.6022-7.647 12.061"/>
   <path d="m69.637 120.31c3.0804 9.9638-3.6328 14.59-3.2516 21.871 11.917-2.6289 17.693-13.419 20.512-22.534 1.864-6.0252 2.0105-15.871-1.649-20.649" stroke-linejoin="round"/>
  </g>
  <g stroke="#732322" stroke-linecap="round">
   <path d="m112.63 58.976c1.5254-0.38087 2.8846 0.50489 3.6628 1.5016 1.2017-0.70896 3.5231-0.98737 4.8831 1.0088 4.8705-1.4708 6.6251 3.0647 5.8858 5.9165 0.55167 0.64423 0.92591 1.4109 1.0949 2.2431 0.31076 1.5297 2e-3 5.4705-1.4503 5.1431l-2.7805 0.30064-3.5375-2.0772c-0.62672-0.36801-2.2298-0.40752-2.2298-0.40752l-2.6644-0.34257-1.9423-2.6104-2.2756-0.31449-0.92101-2.0844-1.9167-1.5513s1.863-6.1108 4.1376-6.7117c0.0179-0.0048 0.0384-0.0241 0.0537-0.01422 1e-5 1e-6 0 1.1e-5 0 1.1e-5z" fill="#eb485c" stroke-miterlimit="3" stroke-width="2.2722"/>
   <g fill="none" stroke-linejoin="round" stroke-width="1.3148">
    <path d="m124.67 71.578s-0.37312-3.886-3.2963-2.1797"/>
    <path d="m121.86 66.552s-0.87134-3.3041-3.9633-1.5166"/>
    <path d="m117.94 67.124s-0.38647-4.7798-4.5231-2.5425"/>
    <path d="m119.45 71.165s-1.1204-3.6936-3.674-1.4048"/>
   </g>
  </g>
  <g>
   <path d="m126.86 74.283 2.4375 2.0574-6.0408-1.9419 0.95366 2.5219-3.5476-3.339-0.18285 2.3599-2.5983-3.012-1.745 1.7325-1.7791-2.8703-0.84614 2.9861-0.23641-4.8012-3.617 0.96513 0.4204-3.364-2.7329-0.87927 1.7161-2.4183-2.6039-1.9088 2.7399-0.34657-2.4995-2.0192 4.4684 0.28434-2.5189 4.0996 0.43191 1.468 2.0259 0.17752-0.10605 3.6271 2.0995-0.55253 1.3388 1.9458 0.77957 1.5316 2.0948-0.59755 1.9174 0.13062 4.0273 2.2787z" fill="#732322" stroke="#732322" stroke-linecap="square" stroke-linejoin="round" stroke-width="1.5326"/>
  </g>
  <g fill="#998c6e" stroke-linecap="round" stroke-linejoin="bevel">
   <ellipse cx="98.214" cy="88.036" rx="4.5035" ry="5.6262" stroke-width=".72977"/>
   <path d="m122.78 86.272c1.4938 3.5642-1.41 6.4665-3.8972 6.4665-2.4872 6e-6 -5.4461-2.8754-3.8972-6.4084 0.96872-2.2096 1.41-2.4021 3.8972-2.4021 2.4872 6e-6 2.9954 0.19244 3.8972 2.344z" stroke-width=".82344"/>
  </g>
  <g>
   <ellipse cx="98.192" cy="86.743" rx="4.1455" ry="4.6599"/>
   <path d="m98.406 82.169c1.6856 0 4.1127 1.5924 3.8062 4.8294-0.30647 3.237-2.5901 4.2682-3.816 4.2682 0 0 2.799-1.8242 2.8669-4.4856 0.0726-2.8412-2.8571-4.6119-2.8571-4.6119z" fill="#58515c" stroke="#58515c" stroke-width=".31106px"/>
   <g fill="#732322" stroke="#732322" stroke-linecap="round" stroke-linejoin="round" stroke-width=".587">
    <path d="m122.26 81.457c-0.13403 0.39588-0.93103 1.4498-1.0651 1.8457-0.0463 0.13684 0.20961 0.68106 0.16328 0.81791 0.0463-0.13684 0.58023-0.41366 0.62656-0.5505 0.13403-0.39588 0.14119-1.7172 0.27522-2.1131z" style="mix-blend-mode:normal"/>
    <path d="m118.84 81.233c0.0238 0.42391-0.32105 1.719-0.29724 2.1429 8e-3 0.14653 0.4492 0.56273 0.45743 0.70926-8e-3 -0.14653 0.38336-0.6095 0.37513-0.75602-0.0238-0.42391-0.51151-1.6723-0.53532-2.0962z" style="mix-blend-mode:normal"/>
    <path d="m115.8 81.375c0.10274 0.40805 7e-3 1.734 0.10937 2.1421 0.0355 0.14105 0.54637 0.46239 0.58188 0.60344-0.0355-0.14105 0.26227-0.66599 0.22676-0.80704-0.10274-0.40805-0.81527-1.5304-0.91801-1.9385z" style="mix-blend-mode:normal"/>
   </g>
   <path d="m121.88 84.12c1.2 3.0939-0.4514 5.9782-2.962 5.9858-2.7042 0.0082-4.1536-2.9753-2.9619-5.9858z" fill="#fff" stroke="#732322" stroke-linecap="round" stroke-linejoin="round" stroke-width="1.086"/>
  </g>
  <g>
   <path d="m103.41 106.19s-2.1279 0.0696-0.26921-3.6007c1.3703-2.706 4.3342-4.022 8.2808-3.7295 3.9467 0.29251 5.8481 4.4836 5.8481 4.4836s0.59451 1.3675-0.87416 1.1858c-1.4686-0.18176-2.3431-1.2069-6.9404-0.23787-4.5973 0.96897-6.0452 1.8986-6.0452 1.8986z" fill="#732322" stroke="#dc46af" stroke-width=".65214"/>
  </g>
  <g>
   <path d="m114.56 104.68s-1.1743-2.8446-4.1716-3.0386c-1.9797-0.12813-3.9343 0.5006-5.0682 1.6275-0.59584 0.59216-1.3747 2.1894-2e-3 2.394 0.85122 0.12691 2.8064-0.90224 4.2584-1.069 1.6478-0.18921 4.9836 0.086 4.9836 0.086z" fill="#e73544"/>
  </g>
  <g>
   <path d="m114.22 102.37-1.5364 9e-3c-0.25565 1e-3 -0.46164-0.2255-0.45308-0.50872l0.0748-2.4778c8e-3 -0.28323 0.19798-0.13823 0.45071-0.08481l0.91182 0.19274c0.25272 0.05343 0.68475 0.07079 0.72584 0.34941l0.29603 2.0069c0.0408 0.27862-0.21417 0.51242-0.4698 0.51383z" fill="#fff"/>
   <path d="m106.9 102.92-1.3999 0.66123c-0.23291 0.11004-0.49656-0.0155-0.59299-0.28098l-0.80646-2.2204c-0.0965-0.26553 0.34361-0.34239 0.56992-0.46882l0.74365-0.41546c0.22629-0.12643 0.45578-0.50808 0.58031-0.25917l1.1535 2.3056c0.12447 0.24887-0.015 0.56816-0.2479 0.67817z" fill="#fff"/>
   <path d="m103.41 106.19s-2.1279 0.0696-0.26921-3.6007c1.3703-2.706 4.3342-4.022 8.2808-3.7295 3.9467 0.29251 5.8481 4.4836 5.8481 4.4836s0.59451 1.3675-0.87416 1.1858c-1.4686-0.18176-2.3431-1.2069-6.9404-0.23787-4.5973 0.96897-6.0452 1.8986-6.0452 1.8986z" fill="none" stroke="#dc46af" stroke-width=".952"/>
  </g>
 </g>
 <path d="m53.771 57.13c-0.1618-0.04336-0.59446-0.39639-0.75937-0.43426-2.6301-0.60389-7.0289-1.0605-12.003 0.45327-2.1587 0.69786-3.7486 1.5502-4.8026 2.1339 1.0257-0.56804 2.7324-1.3399 4.872-1.8956 4.9602-1.381 9.2502-0.81891 11.827-0.22724 0.16157 0.0371 0.70418-0.07342 0.86598-0.03006z" fill="#732322" stroke="#dc46af" stroke-linecap="round" stroke-linejoin="round" stroke-width=".57763"/>
</svg>
